<svg width="241" height="45" viewBox="0 0 241 45" fill="none" xmlns="http://www.w3.org/2000/svg">
<mask id="mask0_2005_434" style="mask-type:luminance" maskUnits="userSpaceOnUse" x="0" y="18" width="241" height="27">
<path d="M240.307 18.4922H0V44.7394H240.307V18.4922Z" fill="white"/>
</mask>
<g mask="url(#mask0_2005_434)">
<path d="M1.99658 37.7578V37.1147H3.45005C3.81575 37.1147 3.99976 36.9329 3.99976 36.5647V24.5783C3.99976 24.2194 3.81575 24.0377 3.45005 24.0377H1.99658V23.3945H8.73287C9.68787 23.3945 10.5311 23.553 11.2578 23.8699C11.9845 24.1821 12.5529 24.6202 12.9628 25.1841C13.3728 25.7504 13.5778 26.4028 13.5778 27.1415C13.5778 27.8825 13.3728 28.5396 12.9628 29.1175C12.5529 29.6954 11.9845 30.1521 11.2578 30.4876C10.5311 30.8185 9.68787 30.9816 8.73287 30.9816H5.85387V36.5647C5.85387 36.7395 5.89114 36.877 5.96568 36.9749C6.04022 37.0681 6.1823 37.1147 6.39427 37.1147H8.17384V37.7578H1.99658ZM5.85387 30.3292H8.99375C9.50852 30.3292 9.94642 30.1847 10.3075 29.8911C10.6732 29.5928 10.9527 29.199 11.146 28.7074C11.337 28.218 11.4348 27.6961 11.4348 27.1415C11.4348 26.5776 11.337 26.0603 11.146 25.5942C10.9527 25.1235 10.6732 24.746 10.3075 24.4664C9.94642 24.1821 9.50852 24.0377 8.99375 24.0377H6.39427C6.03323 24.0377 5.85387 24.2194 5.85387 24.5783V30.3292Z" fill="black"/>
<path d="M20.8336 32.7898H24.9704L22.8741 26.6754L20.8336 32.7898ZM16.3987 37.7578V37.1147H17.1441C17.4911 37.1147 17.7706 37.0378 17.9826 36.8817C18.1992 36.7279 18.3762 36.5345 18.5137 36.3038C18.6488 36.0754 18.7582 35.854 18.8398 35.642L23.1722 23.3945H23.7126L28.0917 36.2199C28.2408 36.5741 28.4108 36.8141 28.6041 36.9376C28.8021 37.0564 29.035 37.1147 29.3029 37.1147H30.4303V37.7578H24.1785V37.1147H25.5108C25.7158 37.1147 25.8835 37.0657 26.014 36.9655C26.1491 36.8607 26.2189 36.7418 26.2189 36.6114C26.2189 36.5438 26.2119 36.4692 26.2003 36.3877C26.1863 36.3084 26.1654 36.2339 26.1351 36.164L25.2313 33.5169H20.5728L20.1069 34.8311C20.037 35.0361 19.9718 35.2482 19.9112 35.4649C19.8553 35.6769 19.8274 35.8704 19.8274 36.0428C19.8274 36.2618 19.8926 36.4948 20.023 36.7418C20.1581 36.9912 20.4353 37.1147 20.8523 37.1147H21.9237V37.7578H16.3987Z" fill="black"/>
<path d="M36.9852 29.686H38.9418C39.7478 29.686 40.3767 29.5532 40.8239 29.2852C41.2758 29.0126 41.5972 28.6468 41.7835 28.1854C41.9699 27.7194 42.0631 27.1974 42.0631 26.6195C42.0631 25.7876 41.8394 25.1515 41.3922 24.7088C40.9497 24.2614 40.3604 24.0377 39.622 24.0377H37.5256C37.1646 24.0377 36.9852 24.2194 36.9852 24.5783V29.686ZM33.1279 37.7578V37.1147H34.5814C34.9471 37.1147 35.1311 36.9329 35.1311 36.5647V24.5783C35.1311 24.2194 34.9471 24.0377 34.5814 24.0377H33.1279V23.3945H39.7431C40.5118 23.3945 41.2362 23.4877 41.914 23.6742C42.5895 23.8606 43.1392 24.1868 43.5631 24.6528C43.9917 25.1189 44.206 25.776 44.206 26.6195C44.206 27.3232 44.022 27.9198 43.6563 28.4091C43.2952 28.9008 42.8224 29.2852 42.2401 29.5649C41.6554 29.8445 41.0405 30.0193 40.3953 30.0868V30.1707C40.8355 30.2523 41.2525 30.4107 41.6438 30.6461C42.0351 30.8838 42.3705 31.2706 42.65 31.8112C42.9342 32.3471 43.1369 33.1044 43.2556 34.0854C43.3488 34.7891 43.4327 35.3297 43.5072 35.7072C43.5817 36.0801 43.6772 36.341 43.796 36.4902C43.9195 36.6347 44.0895 36.7046 44.3085 36.7046C44.5624 36.7046 44.7487 36.5811 44.8675 36.3317C44.991 36.0847 45.0725 35.7911 45.1098 35.4556C45.1517 35.12 45.175 34.8124 45.175 34.5328H45.6781C45.6781 34.7565 45.6618 35.0618 45.6315 35.4463C45.6059 35.8331 45.529 36.2199 45.3986 36.6114C45.2728 36.9982 45.0678 37.3267 44.7837 37.5993C44.5041 37.865 44.1035 38.0001 43.5817 38.0001C43.1462 38.0001 42.7758 37.9256 42.473 37.7764C42.1749 37.6273 41.9326 37.385 41.7463 37.0494C41.5273 36.6207 41.3782 36.0871 41.2991 35.4463C41.2175 34.8078 41.1709 34.1507 41.1593 33.4796C41.1593 32.939 41.0941 32.4333 40.9636 31.9603C40.8379 31.4826 40.6329 31.0911 40.3487 30.7859C40.0692 30.483 39.6802 30.3292 39.1841 30.3292H36.9852V36.5647C36.9852 36.7395 37.0225 36.877 37.097 36.9749C37.1716 37.0681 37.3137 37.1147 37.5256 37.1147H39.3238V37.7578H33.1279Z" fill="black"/>
<path d="M59.3449 32.7898H63.4817L61.3853 26.6754L59.3449 32.7898ZM54.9099 37.7578V37.1147H55.6553C56.0023 37.1147 56.2819 37.0378 56.4938 36.8817C56.7104 36.7279 56.8875 36.5345 57.0249 36.3038C57.16 36.0754 57.2695 35.854 57.351 35.642L61.6835 23.3945H62.2239L66.6029 36.2199C66.752 36.5741 66.922 36.8141 67.1154 36.9376C67.3133 37.0564 67.5463 37.1147 67.8141 37.1147H68.9415V37.7578H62.6897V37.1147H64.0221C64.227 37.1147 64.3948 37.0657 64.5252 36.9655C64.6603 36.8607 64.7302 36.7418 64.7302 36.6114C64.7302 36.5438 64.7232 36.4692 64.7115 36.3877C64.6976 36.3084 64.6766 36.2339 64.6463 36.164L63.7426 33.5169H59.084L58.6181 34.8311C58.5483 35.0361 58.483 35.2482 58.4225 35.4649C58.3666 35.6769 58.3386 35.8704 58.3386 36.0428C58.3386 36.2618 58.4038 36.4948 58.5343 36.7418C58.6694 36.9912 58.9466 37.1147 59.3635 37.1147H60.435V37.7578H54.9099Z" fill="black"/>
<path d="M71.6392 37.7578V37.1147H73.0926C73.4583 37.1147 73.6423 36.9329 73.6423 36.5647V24.5783C73.6423 24.2194 73.4583 24.0377 73.0926 24.0377H71.6392V23.3945H77.8164V24.0377H76.0368C75.6758 24.0377 75.4965 24.2194 75.4965 24.5783V36.5647C75.4965 36.9329 75.6758 37.1147 76.0368 37.1147H78.8599C79.1581 37.1147 79.5261 37.0378 79.9687 36.8817C80.4159 36.7279 80.7839 36.4529 81.0774 36.0614C81.3057 35.7515 81.499 35.3857 81.6551 34.9616C81.8088 34.5398 81.9276 34.1274 82.0091 33.7219C82.0883 33.3188 82.1442 32.9856 82.1768 32.7246C82.2141 32.4636 82.2327 32.3331 82.2327 32.3331H82.7359L82.475 37.7578H71.6392Z" fill="black"/>
<path d="M86.1565 37.7578V37.1147H87.61C87.9757 37.1147 88.1597 36.9329 88.1597 36.5647V24.5783C88.1597 24.2194 87.9757 24.0377 87.61 24.0377H86.1565V23.3945H92.3338V24.0377H90.5542C90.1931 24.0377 90.0138 24.2194 90.0138 24.5783V36.5647C90.0138 36.9329 90.1931 37.1147 90.5542 37.1147H93.3773C93.6754 37.1147 94.0434 37.0378 94.486 36.8817C94.9332 36.7279 95.3013 36.4529 95.5947 36.0614C95.823 35.7515 96.0163 35.3857 96.1724 34.9616C96.3261 34.5398 96.4449 34.1274 96.5265 33.7219C96.6057 33.3188 96.6616 32.9856 96.6942 32.7246C96.7314 32.4636 96.7501 32.3331 96.7501 32.3331H97.2532L96.9923 37.7578H86.1565Z" fill="black"/>
<path d="M104.792 32.7898H108.929L106.832 26.6754L104.792 32.7898ZM100.357 37.7578V37.1147H101.102C101.449 37.1147 101.729 37.0378 101.941 36.8817C102.157 36.7279 102.334 36.5345 102.472 36.3038C102.607 36.0754 102.716 35.854 102.798 35.642L107.13 23.3945H107.671L112.05 36.2199C112.199 36.5741 112.369 36.8141 112.562 36.9376C112.76 37.0564 112.993 37.1147 113.261 37.1147H114.389V37.7578H108.137V37.1147H109.469C109.674 37.1147 109.842 37.0657 109.972 36.9655C110.107 36.8607 110.177 36.7418 110.177 36.6114C110.177 36.5438 110.17 36.4692 110.159 36.3877C110.145 36.3084 110.124 36.2339 110.093 36.164L109.19 33.5169H104.531L104.065 34.8311C103.995 35.0361 103.93 35.2482 103.869 35.4649C103.814 35.6769 103.786 35.8704 103.786 36.0428C103.786 36.2618 103.851 36.4948 103.981 36.7418C104.116 36.9912 104.394 37.1147 104.811 37.1147H105.882V37.7578H100.357Z" fill="black"/>
<path d="M117.086 37.7578V37.1147H117.813C118.204 37.1147 118.514 36.9725 118.745 36.6859C118.973 36.3946 119.09 36.0008 119.09 35.5022V24.5783C119.071 24.2194 118.887 24.0377 118.54 24.0377H117.086V23.3945H120.897L127.904 34.654V25.6502C127.904 25.1422 127.787 24.746 127.559 24.4664C127.328 24.1821 127.023 24.0377 126.646 24.0377H125.919V23.3945H130.727V24.0377H130C129.62 24.0377 129.311 24.1821 129.068 24.4664C128.826 24.746 128.705 25.1422 128.705 25.6502V38.1213H127.904L119.975 25.5942H119.891V35.5022C119.891 36.0008 120.007 36.3946 120.245 36.6859C120.48 36.9725 120.788 37.1147 121.167 37.1147H121.885V37.7578H117.086Z" fill="black"/>
<path d="M140.274 37.7578V37.1147H141.727C142.093 37.1147 142.277 36.9329 142.277 36.5647V24.5783C142.277 24.2194 142.093 24.0377 141.727 24.0377H140.274V23.3945H146.022V24.0377H144.671C144.31 24.0377 144.131 24.2194 144.131 24.5783V30.8325L148.771 26.0975C148.943 25.9065 149.071 25.7201 149.153 25.5383C149.232 25.3589 149.274 25.1422 149.274 24.8859C149.274 24.6435 149.19 24.4431 149.022 24.28C148.855 24.1192 148.633 24.0377 148.361 24.0377H147.821V23.3945H153.141V24.0377H152.339C152.053 24.0377 151.738 24.1728 151.398 24.4385C151.056 24.7064 150.765 24.9697 150.523 25.2307L147.131 28.6608L151.249 36.2199C151.422 36.5438 151.613 36.7745 151.818 36.9096C152.027 37.0471 152.342 37.1147 152.759 37.1147H153.429V37.7578H147.336V37.1147H148.687C148.836 37.1147 148.962 37.0727 149.069 36.9842C149.174 36.898 149.227 36.7978 149.227 36.6859C149.227 36.6183 149.213 36.5321 149.19 36.4249C149.165 36.3201 149.13 36.2385 149.088 36.1826L145.799 30.0123L144.131 31.7086V36.5647C144.131 36.9329 144.31 37.1147 144.671 37.1147H146.022V37.7578H140.274Z" fill="black"/>
<path d="M160.643 32.7898H164.78L162.684 26.6754L160.643 32.7898ZM156.208 37.7578V37.1147H156.954C157.301 37.1147 157.58 37.0378 157.792 36.8817C158.009 36.7279 158.186 36.5345 158.323 36.3038C158.458 36.0754 158.568 35.854 158.649 35.642L162.982 23.3945H163.522L167.901 36.2199C168.05 36.5741 168.22 36.8141 168.414 36.9376C168.612 37.0564 168.845 37.1147 169.112 37.1147H170.24V37.7578H163.988V37.1147H165.32C165.525 37.1147 165.693 37.0657 165.824 36.9655C165.959 36.8607 166.029 36.7418 166.029 36.6114C166.029 36.5438 166.022 36.4692 166.01 36.3877C165.996 36.3084 165.975 36.2339 165.945 36.164L165.041 33.5169H160.382L159.916 34.8311C159.847 35.0361 159.781 35.2482 159.721 35.4649C159.665 35.6769 159.637 35.8704 159.637 36.0428C159.637 36.2618 159.702 36.4948 159.833 36.7418C159.968 36.9912 160.245 37.1147 160.662 37.1147H161.733V37.7578H156.208Z" fill="black"/>
<path d="M176.795 29.686H178.751C179.557 29.686 180.186 29.5532 180.633 29.2852C181.085 29.0126 181.407 28.6468 181.593 28.1854C181.779 27.7194 181.873 27.1974 181.873 26.6195C181.873 25.7876 181.649 25.1515 181.202 24.7088C180.759 24.2614 180.17 24.0377 179.432 24.0377H177.335C176.974 24.0377 176.795 24.2194 176.795 24.5783V29.686ZM172.938 37.7578V37.1147H174.391C174.757 37.1147 174.941 36.9329 174.941 36.5647V24.5783C174.941 24.2194 174.757 24.0377 174.391 24.0377H172.938V23.3945H179.553C180.321 23.3945 181.046 23.4877 181.724 23.6742C182.399 23.8606 182.949 24.1868 183.373 24.6528C183.801 25.1189 184.016 25.776 184.016 26.6195C184.016 27.3232 183.832 27.9198 183.466 28.4091C183.105 28.9008 182.632 29.2852 182.05 29.5649C181.465 29.8445 180.85 30.0193 180.205 30.0868V30.1707C180.645 30.2523 181.062 30.4107 181.453 30.6461C181.845 30.8838 182.18 31.2706 182.46 31.8112C182.744 32.3471 182.946 33.1044 183.065 34.0854C183.158 34.7891 183.242 35.3297 183.317 35.7072C183.391 36.0801 183.487 36.341 183.606 36.4902C183.729 36.6347 183.899 36.7046 184.118 36.7046C184.372 36.7046 184.558 36.5811 184.677 36.3317C184.801 36.0847 184.882 35.7911 184.919 35.4556C184.961 35.12 184.985 34.8124 184.985 34.5328H185.488C185.488 34.7565 185.471 35.0618 185.441 35.4463C185.415 35.8331 185.339 36.2199 185.208 36.6114C185.082 36.9982 184.877 37.3267 184.593 37.5993C184.314 37.865 183.913 38.0001 183.391 38.0001C182.956 38.0001 182.585 37.9256 182.283 37.7764C181.984 37.6273 181.742 37.385 181.556 37.0494C181.337 36.6207 181.188 36.0871 181.109 35.4463C181.027 34.8078 180.981 34.1507 180.969 33.4796C180.969 32.939 180.904 32.4333 180.773 31.9603C180.647 31.4826 180.442 31.0911 180.158 30.7859C179.879 30.483 179.49 30.3292 178.994 30.3292H176.795V36.5647C176.795 36.7395 176.832 36.877 176.907 36.9749C176.981 37.0681 177.123 37.1147 177.335 37.1147H179.133V37.7578H172.938Z" fill="black"/>
<path d="M188.382 37.7578V37.1147H189.836C190.201 37.1147 190.386 36.9329 190.386 36.5647V24.5783C190.386 24.2194 190.201 24.0377 189.836 24.0377H188.382V23.3945H195.771C196.602 23.3945 197.387 23.5623 198.128 23.8979C198.866 24.2334 199.516 24.7181 200.075 25.3519C200.634 25.981 201.068 26.7267 201.38 27.5889C201.697 28.4464 201.855 29.4018 201.855 30.4503C201.855 31.5013 201.697 32.4706 201.38 33.3584C201.068 34.2485 200.634 35.0222 200.075 35.6793C199.516 36.3387 198.866 36.8514 198.128 37.2172C197.387 37.5784 196.602 37.7578 195.771 37.7578H188.382ZM192.24 36.5647C192.24 36.9329 192.419 37.1147 192.78 37.1147H195.687C196.437 37.1147 197.071 36.9189 197.588 36.5275C198.109 36.136 198.522 35.6187 198.827 34.9709C199.137 34.3254 199.363 33.6101 199.507 32.8271C199.649 32.0395 199.721 31.2473 199.721 30.4503C199.721 29.6627 199.649 28.8845 199.507 28.1202C199.363 27.3512 199.137 26.6615 198.827 26.0509C198.522 25.4358 198.109 24.9488 197.588 24.5876C197.071 24.2217 196.437 24.0377 195.687 24.0377H192.78C192.419 24.0377 192.24 24.2194 192.24 24.5783V36.5647Z" fill="black"/>
<path d="M205.117 37.7578V37.1147H206.571C206.937 37.1147 207.121 36.9329 207.121 36.5647V24.5783C207.121 24.2194 206.937 24.0377 206.571 24.0377H205.117V23.3945H216.373L216.456 27.9524H215.953C215.953 27.9524 215.937 27.8102 215.907 27.5236C215.881 27.2323 215.809 26.8758 215.692 26.4517C215.581 26.023 215.39 25.6082 215.124 25.2028C214.812 24.7367 214.444 24.4268 214.015 24.2707C213.587 24.1169 213.17 24.0377 212.767 24.0377H209.515C209.154 24.0377 208.975 24.2194 208.975 24.5783V30.0868H210.745C211.271 30.0868 211.649 29.9377 211.872 29.6394C212.101 29.3365 212.247 28.9683 212.31 28.5396C212.371 28.1062 212.403 27.6961 212.403 27.3092H212.925V33.6194H212.403C212.403 33.2163 212.371 32.7992 212.31 32.3704C212.247 31.9417 212.101 31.5758 211.872 31.2706C211.649 30.9676 211.271 30.8138 210.745 30.8138H208.975V36.5647C208.975 36.9329 209.154 37.1147 209.515 37.1147H212.748C213.039 37.1147 213.405 37.0401 213.848 36.891C214.295 36.7418 214.667 36.4715 214.966 36.0801C215.194 35.7771 215.385 35.4136 215.534 34.9895C215.688 34.5608 215.807 34.146 215.888 33.7406C215.967 33.3374 216.023 33.0042 216.056 32.7432C216.093 32.4823 216.112 32.3518 216.112 32.3518H216.615L216.373 37.7578H205.117Z" fill="black"/>
<path d="M220.206 30.4506C220.206 29.4439 220.331 28.4932 220.588 27.5984C220.841 26.7036 221.212 25.916 221.696 25.2309C222.181 24.5412 222.77 24.0053 223.467 23.6185C224.168 23.227 224.962 23.0312 225.852 23.0312C226.36 23.0312 226.839 23.1408 227.287 23.3575C227.738 23.5695 228.093 23.7676 228.349 23.954C228.565 24.1031 228.74 24.2313 228.87 24.3362C229.075 24.5296 229.264 24.6251 229.439 24.6251C229.544 24.6251 229.625 24.5878 229.681 24.5132C229.737 24.4387 229.788 24.3268 229.839 24.1777L230.184 23.1897H230.687V28.8008H230.184C229.872 27.659 229.478 26.7083 229.001 25.9486C228.528 25.1843 228.018 24.6158 227.473 24.2429C226.926 23.8655 226.385 23.6744 225.852 23.6744C224.883 23.6744 224.142 23.954 223.634 24.5132C223.131 25.0725 222.789 25.8601 222.609 26.8714C222.428 27.885 222.339 29.0781 222.339 30.4506C222.339 31.8254 222.442 33.0394 222.647 34.095C222.856 35.1529 223.238 35.9824 223.793 36.5836C224.345 37.1801 225.137 37.4784 226.169 37.4784C226.87 37.4784 227.473 37.3386 227.976 37.059C228.479 36.7747 228.891 36.3925 229.215 35.9125C229.537 35.4348 229.786 34.9036 229.961 34.3187C230.14 33.7361 230.249 33.1396 230.287 32.5291H231.013C230.999 32.9089 230.948 33.3447 230.855 33.834C230.762 34.3257 230.606 34.8197 230.389 35.316C230.17 35.8147 229.879 36.276 229.513 36.7048C229.152 37.1289 228.698 37.4691 228.153 37.7301C227.613 37.991 226.951 38.1215 226.169 38.1215C225.186 38.1215 224.326 37.9025 223.588 37.4691C222.847 37.0287 222.227 36.4415 221.724 35.7075C221.221 34.9758 220.841 34.1509 220.588 33.2375C220.331 32.324 220.206 31.3966 220.206 30.4506Z" fill="black"/>
</g>
<mask id="mask1_2005_434" style="mask-type:luminance" maskUnits="userSpaceOnUse" x="42" y="0" width="156" height="11">
<path d="M197.374 0H42.9333V10.7375H197.374V0Z" fill="white"/>
</mask>
<g mask="url(#mask1_2005_434)">
<path d="M45.9131 7.71681C45.7757 7.80302 45.6197 7.8473 45.4473 7.8473C45.2796 7.8473 45.1258 7.80302 44.9907 7.71681C44.8533 7.80302 44.7252 7.8473 44.6087 7.8473C44.4969 7.8473 44.4038 7.83332 44.3292 7.81001C44.2547 7.79137 44.1895 7.76574 44.1336 7.73545C44.0148 7.66088 43.9565 7.57467 43.9565 7.47447C43.9565 7.41854 43.9705 7.37194 44.0031 7.33466C44.059 7.37893 44.1336 7.3999 44.2267 7.3999C44.462 7.3999 44.6274 7.29737 44.7205 7.09232V5.14428C44.7205 5.02078 44.6926 4.9299 44.6367 4.87398C44.5622 4.77611 44.4247 4.67591 44.2267 4.57572C44.4061 4.49649 44.5249 4.42425 44.5808 4.36134C44.674 4.25648 44.7205 4.13764 44.7205 4.00715V2.3201C44.6274 2.11504 44.462 2.01251 44.2267 2.01251C44.1336 2.01251 44.059 2.03581 44.0031 2.07776C43.9705 2.04047 43.9565 1.99853 43.9565 1.94727C43.9565 1.89134 43.9705 1.84241 44.0031 1.79813C44.0334 1.75619 44.0777 1.71891 44.1336 1.68628C44.25 1.60706 44.3875 1.56512 44.5435 1.56512C44.7042 1.56512 44.8533 1.61172 44.9907 1.70493C45.1258 1.61172 45.2796 1.56512 45.4473 1.56512C45.6197 1.56512 45.7757 1.61172 45.9131 1.70493C46.2159 1.58842 46.5514 1.52783 46.9194 1.52783C47.2851 1.52783 47.5902 1.56278 47.8325 1.63036C48.0794 1.70027 48.2937 1.79347 48.4754 1.90998C48.8341 2.15931 49.0577 2.50418 49.1462 2.94459C49.1835 3.14498 49.3092 3.29411 49.5282 3.39198C49.3162 3.51082 49.1788 3.69724 49.1182 3.95123C48.9878 4.48018 48.6617 4.80873 48.1399 4.93923C48.4055 5.01379 48.6268 5.16292 48.8015 5.38662C48.9738 5.61731 49.0623 5.88994 49.0623 6.20685V6.60764C49.0623 6.98746 49.1858 7.23213 49.435 7.34398C49.5096 7.38126 49.5887 7.3999 49.6773 7.3999C49.7634 7.3999 49.838 7.37893 49.9009 7.33466C49.9242 7.37194 49.9381 7.41854 49.9381 7.47447C49.9381 7.52573 49.9242 7.57234 49.9009 7.61428C49.8752 7.65855 49.8403 7.69817 49.7984 7.73545C49.6982 7.81001 49.5841 7.8473 49.4536 7.8473C49.3279 7.8473 49.2044 7.81001 49.081 7.73545C48.8574 7.85895 48.6477 7.8706 48.4567 7.77273C48.3822 7.82167 48.3007 7.8473 48.2145 7.8473C48.1329 7.8473 48.0561 7.82866 47.9815 7.79137C47.907 7.75409 47.8371 7.69351 47.7766 7.60496C47.6508 7.41854 47.5902 7.13659 47.5902 6.75677V6.45851C47.5902 5.84334 47.4155 5.44721 47.0685 5.26545C46.9497 5.20487 46.8122 5.17224 46.6585 5.17224H46.1833V7.12028C46.2579 7.30669 46.3976 7.3999 46.6026 7.3999C46.6888 7.3999 46.7633 7.37893 46.8262 7.33466C46.8495 7.37194 46.8635 7.43252 46.8635 7.51175C46.8635 7.58632 46.8192 7.66088 46.733 7.73545C46.6515 7.81001 46.5281 7.8473 46.3604 7.8473C46.1927 7.8473 46.0436 7.80302 45.9131 7.71681ZM46.9567 2.05911C46.4396 2.05911 46.1833 2.25951 46.1833 2.65564V4.28677C46.1833 4.43124 46.2392 4.52445 46.351 4.5664C46.4559 4.61766 46.6073 4.64096 46.8076 4.64096C47.0126 4.64096 47.1546 4.62931 47.2362 4.60368C47.3154 4.58038 47.3876 4.53843 47.4505 4.48251C47.5669 4.37066 47.6275 4.18191 47.6275 3.91394V2.74885C47.6275 2.4133 47.4901 2.19893 47.2175 2.10572C47.129 2.07543 47.0428 2.05911 46.9567 2.05911ZM47.8977 2.3201C47.9769 2.50651 48.0188 2.80477 48.0188 3.21489C48.0188 3.9186 47.9839 4.34037 47.9163 4.48251C48.0654 4.45222 48.1702 4.25648 48.2331 3.8953L48.2704 3.72753C48.2937 3.55509 48.3775 3.44325 48.5219 3.39198C48.4148 3.36169 48.3496 3.32208 48.3263 3.27081C48.2937 3.21489 48.2634 3.12168 48.2331 2.99119C48.2075 2.85604 48.1819 2.74652 48.1586 2.66496C48.1329 2.57875 48.105 2.5135 48.0747 2.46923C48.0235 2.38301 47.9652 2.33408 47.8977 2.3201ZM45.1025 6.70085C45.233 6.65191 45.3029 6.47715 45.3168 6.17888C45.3355 5.88062 45.3448 5.46818 45.3448 4.93923C45.3448 4.4126 45.3401 4.06075 45.3355 3.88598C45.3355 3.71355 45.3355 3.57374 45.3355 3.46655C45.3285 3.15663 45.2982 2.97022 45.2423 2.9073C45.1911 2.83973 45.1445 2.79312 45.1025 2.76749C45.1025 3.69491 45.0862 4.22153 45.056 4.35202C45.0187 4.45921 44.9255 4.53377 44.7765 4.57572C44.9372 4.63164 45.0303 4.70155 45.056 4.78077C45.0862 4.91126 45.1025 5.38196 45.1025 6.18821V6.70085ZM47.8604 5.61032C47.9652 5.72916 48.0188 5.87596 48.0188 6.04839V6.57968C48.0188 7.02241 48.105 7.25776 48.2797 7.28805C48.3286 7.29504 48.3752 7.29271 48.4194 7.27873C48.3263 7.1296 48.2797 6.97581 48.2797 6.8127V6.25345C48.2797 6.04373 48.2471 5.8946 48.1865 5.80605C48.0864 5.65226 47.9769 5.58702 47.8604 5.61032Z" fill="black"/>
<path d="M52.4712 7.8472C52.2966 7.8472 52.1405 7.80293 52.0054 7.71671C51.868 7.80293 51.7399 7.8472 51.6234 7.8472C51.5116 7.8472 51.4184 7.83322 51.3439 7.80992C51.2693 7.79128 51.2041 7.76564 51.1482 7.73535C51.0294 7.66079 50.9712 7.57457 50.9712 7.47437C50.9712 7.41845 50.9852 7.37184 51.0178 7.33456C51.0737 7.37883 51.1482 7.39981 51.2414 7.39981C51.4766 7.39981 51.642 7.29728 51.7352 7.09222V5.14418C51.7352 5.02068 51.7072 4.92981 51.6513 4.87388C51.5768 4.77602 51.4394 4.67582 51.2414 4.57562C51.4207 4.49639 51.5395 4.42416 51.5954 4.36124C51.6886 4.25638 51.7352 4.13754 51.7352 4.00705V2.32C51.642 2.11494 51.4766 2.01241 51.2414 2.01241C51.1482 2.01241 51.0737 2.03572 51.0178 2.07766C50.9852 2.04038 50.9712 1.99843 50.9712 1.94717C50.9712 1.89124 50.9852 1.84231 51.0178 1.79804C51.0481 1.75609 51.0923 1.71881 51.1482 1.68619C51.2647 1.60696 51.4021 1.56502 51.5582 1.56502C51.7189 1.56502 51.868 1.61162 52.0054 1.70483C52.1405 1.61162 52.2989 1.56502 52.4806 1.56502C52.6599 1.56502 52.8206 1.61861 52.9651 1.72347C53.2492 1.61861 53.5753 1.56502 53.9434 1.56502C54.2159 1.56502 54.4511 1.59298 54.6515 1.6489L55.0055 1.74211C55.0474 1.75609 55.0894 1.76075 55.1266 1.76075C55.2012 1.76075 55.2384 1.70949 55.2384 1.6023C55.2384 1.579 55.2291 1.5324 55.2105 1.46249C55.285 1.45084 55.3782 1.44385 55.49 1.44385C55.6065 1.44385 55.7066 1.48579 55.7881 1.56502C55.8673 1.63958 55.9093 1.7491 55.9093 1.89124C55.9093 2.03572 55.8813 2.13824 55.8254 2.19883C55.9 2.30602 55.9372 2.43651 55.9372 2.5903C55.9372 2.74642 55.8836 2.87458 55.7788 2.97245C55.8091 3.05401 55.8254 3.13556 55.8254 3.21479C55.8254 3.28936 55.8114 3.35926 55.7881 3.41985C55.7625 3.48276 55.7322 3.53636 55.695 3.5783C55.6204 3.65286 55.5459 3.69015 55.4714 3.69015C55.3596 3.69015 55.2571 3.66685 55.1639 3.61558C55.1942 3.555 55.2105 3.46179 55.2105 3.33596C55.2105 3.04469 55.1383 2.78604 54.9962 2.56234C54.7959 2.25941 54.4954 2.10562 54.0924 2.10562C53.8921 2.10562 53.7104 2.15688 53.5427 2.25475C53.3797 2.35495 53.2655 2.49709 53.198 2.68351V4.23075C53.2912 4.28668 53.3773 4.31464 53.4589 4.31464C53.545 4.31464 53.6079 4.31464 53.6452 4.31464C53.6871 4.30998 53.7314 4.30299 53.7756 4.296C53.8805 4.27735 53.9643 4.25638 54.0272 4.23075C54.139 4.17483 54.1949 4.04434 54.1949 3.83928C54.1949 3.72277 54.167 3.63189 54.1111 3.56898C54.16 3.53169 54.2252 3.51305 54.3067 3.51305C54.4861 3.51305 54.6165 3.58529 54.698 3.72743C54.7213 3.77869 54.7353 3.83462 54.7353 3.8952C54.7353 3.95812 54.719 4.03269 54.6887 4.1189C54.8005 4.24939 54.8564 4.40319 54.8564 4.57562C54.8564 4.74339 54.8005 4.89019 54.6887 5.01369C54.719 5.1069 54.7353 5.19079 54.7353 5.26535C54.7353 5.33526 54.719 5.40284 54.6887 5.47041C54.6631 5.54032 54.6282 5.59158 54.5862 5.62886C54.5047 5.70343 54.4115 5.74071 54.3067 5.74071C54.2322 5.74071 54.167 5.71974 54.1111 5.67547C54.167 5.58226 54.1949 5.47507 54.1949 5.34924C54.1949 5.10224 54.125 4.94845 53.9899 4.89252C53.8711 4.84359 53.7337 4.81796 53.58 4.81796C53.4239 4.81796 53.2958 4.84592 53.198 4.90184V6.89648C53.3517 7.17145 53.6499 7.3066 54.0924 7.3066C54.5956 7.3066 54.9356 7.1528 55.1173 6.84056C55.327 6.48637 55.4341 6.10888 55.4341 5.70343C55.4341 5.58692 55.4248 5.49604 55.4061 5.43313C55.4667 5.36555 55.5319 5.3306 55.6018 5.3306C55.6763 5.3306 55.7322 5.34458 55.7695 5.36788C55.8068 5.38652 55.8394 5.40983 55.872 5.43313C55.9326 5.50769 55.9652 5.58226 55.9652 5.65683L55.9465 5.85256C55.9465 5.90382 55.9582 5.94344 55.9838 5.97373C56.0397 6.02966 56.0677 6.08325 56.0677 6.13218C56.0677 6.18345 56.0514 6.2417 56.0211 6.30928C56.077 6.34656 56.1282 6.40016 56.1795 6.46773C56.2284 6.53764 56.254 6.60521 56.254 6.67279C56.254 6.82891 56.1911 6.96639 56.0677 7.0829C56.1236 7.16446 56.1515 7.27864 56.1515 7.42777C56.1515 7.5769 56.1073 7.70506 56.0211 7.80992C55.9326 7.91478 55.8208 7.96837 55.6857 7.96837C55.6111 7.96837 55.5319 7.96138 55.4527 7.94973C55.4574 7.88681 55.462 7.82856 55.462 7.77263C55.462 7.64914 55.4061 7.58622 55.2943 7.58622C55.1686 7.58622 55.0451 7.61185 54.9217 7.66079C54.6282 7.78429 54.2927 7.8472 53.9154 7.8472C53.5357 7.8472 53.2166 7.79594 52.9557 7.69807C52.8183 7.79594 52.6576 7.8472 52.4712 7.8472ZM52.1172 6.70075C52.2476 6.65182 52.3175 6.47705 52.3315 6.17879C52.3501 5.88052 52.3594 5.46808 52.3594 4.93913C52.3594 4.41251 52.3548 4.06065 52.3501 3.88588C52.3501 3.71345 52.3501 3.57364 52.3501 3.46645C52.3431 3.15654 52.3129 2.97012 52.257 2.9072C52.2057 2.83963 52.1591 2.79303 52.1172 2.76739C52.1172 3.69481 52.1009 4.22143 52.0706 4.35192C52.0333 4.45911 51.9402 4.53368 51.7911 4.57562C51.9518 4.63154 52.045 4.70145 52.0706 4.78068C52.1009 4.91117 52.1172 5.38186 52.1172 6.18811V6.70075ZM53.1234 6.66347C53.1234 6.67046 53.1234 6.67745 53.1234 6.68211V6.66347Z" fill="black"/>
<path d="M61.3684 7.07368C61.4732 6.98047 61.5571 6.86396 61.62 6.71949C61.6875 6.57735 61.7225 6.42822 61.7225 6.27209C61.7225 6.11131 61.6899 5.98781 61.6293 5.89926C61.6712 5.8247 61.7597 5.78741 61.8902 5.78741C62.0253 5.78741 62.1324 5.83169 62.207 5.9179C62.2815 6.00645 62.3188 6.1416 62.3188 6.32802C62.3188 6.50977 62.2675 6.69852 62.1697 6.89658C62.0765 7.08999 61.9391 7.25776 61.7597 7.3999C61.3731 7.7238 60.8886 7.88458 60.3063 7.88458C59.6098 7.88458 59.0391 7.66787 58.5919 7.23213C58.1377 6.78473 57.8652 6.14626 57.772 5.31206C57.7208 4.93456 57.5857 4.68757 57.3621 4.57572C57.4855 4.51979 57.5717 4.46154 57.6229 4.39862C57.6975 4.28677 57.7441 4.13764 57.7627 3.95123C57.786 3.76481 57.8302 3.56908 57.8931 3.36402C57.9607 3.15896 58.0469 2.96789 58.154 2.78613C58.2588 2.60671 58.3823 2.43894 58.5267 2.28281C58.6758 2.12902 58.8435 1.99387 59.0298 1.88202C59.4328 1.64667 59.901 1.52783 60.4367 1.52783C60.9515 1.52783 61.3801 1.65832 61.7225 1.9193C62.0253 2.15698 62.2256 2.47855 62.3188 2.88866C62.3607 3.09372 62.4143 3.21955 62.4772 3.26149C62.5074 3.28712 62.5424 3.30809 62.5797 3.32674C62.4981 3.45723 62.377 3.52946 62.2163 3.54111C62.1464 3.55509 62.0695 3.54111 61.9834 3.50383C61.8389 3.75316 61.634 3.88365 61.3684 3.8953C61.3125 3.90229 61.2683 3.89297 61.238 3.86734C61.3125 3.77413 61.3451 3.66228 61.3405 3.53179C61.3405 3.50849 61.3358 3.48286 61.3312 3.45723C61.2054 3.48286 61.1006 3.47354 61.0144 3.42926C60.8769 3.35004 60.8047 3.26149 60.8001 3.16828C60.8001 3.14964 60.8024 3.12867 60.8094 3.10304C60.9771 3.1543 61.1355 3.11702 61.2846 2.99119C61.3824 2.91196 61.429 2.81876 61.4243 2.71157C61.4173 2.60671 61.3917 2.51583 61.3498 2.44127C61.3125 2.3667 61.252 2.29912 61.1728 2.23621C60.9911 2.09407 60.7651 2.02183 60.4926 2.02183C60.0268 2.02183 59.724 2.22689 59.5889 2.637C59.5446 2.78147 59.5236 2.94459 59.5236 3.131V3.93258C59.5236 4.23784 59.668 4.45222 59.9615 4.57572C59.668 4.72019 59.5236 4.94855 59.5236 5.26545V6.25345C59.5236 6.76376 59.724 7.09931 60.1292 7.26009C60.2597 7.31136 60.4018 7.33466 60.5578 7.33466C60.7116 7.33466 60.8583 7.31369 60.9957 7.26941C61.1378 7.22747 61.2613 7.16222 61.3684 7.07368ZM58.6758 6.70085C58.713 6.6892 58.7317 6.66123 58.7317 6.61696C58.7317 6.56104 58.7037 6.47249 58.6478 6.34666C58.5104 6.02509 58.4428 5.43323 58.4428 4.57572C58.4428 3.95589 58.5174 3.42693 58.6665 2.99119C58.6851 2.92361 58.6944 2.87468 58.6944 2.84206C58.6944 2.80477 58.6758 2.78147 58.6385 2.76749C58.5127 2.92361 58.4242 3.07974 58.3683 3.23353C58.2682 3.52014 58.1913 3.90229 58.1354 4.37998C58.1284 4.44989 58.0515 4.51513 57.9025 4.57572C58.0515 4.64562 58.1284 4.7132 58.1354 4.78077C58.2286 5.60799 58.3497 6.16024 58.4988 6.43987C58.5547 6.54006 58.6129 6.62628 58.6758 6.70085Z" fill="black"/>
<path d="M68.6088 6.46814C68.6577 6.58698 68.7532 6.69883 68.8976 6.80369C68.8044 6.84097 68.6856 6.92952 68.5435 7.06467C68.4061 7.20215 68.2501 7.32565 68.0777 7.4375C67.91 7.54469 67.7376 7.63091 67.5652 7.69848C67.2601 7.82198 66.927 7.8849 66.5683 7.8849C66.2073 7.8849 65.8812 7.84062 65.59 7.75441C65.2965 7.66819 65.0543 7.55401 64.8633 7.40954C64.4906 7.11826 64.3042 6.73378 64.3042 6.25377V5.1446C64.3042 5.0211 64.2786 4.93022 64.2297 4.87429C64.1482 4.77643 64.0108 4.67623 63.8198 4.57603C63.9991 4.4968 64.1132 4.42457 64.1645 4.36165C64.2577 4.2568 64.3042 4.13796 64.3042 4.00747V2.32041C64.2111 2.11535 64.0457 2.01283 63.8104 2.01283C63.7219 2.01283 63.6474 2.03613 63.5868 2.07807C63.5612 2.04079 63.5496 1.99884 63.5496 1.94758C63.5496 1.89166 63.5612 1.84272 63.5868 1.79845C63.6171 1.75651 63.6614 1.71922 63.7173 1.6866C63.8407 1.60737 63.9805 1.56543 64.1365 1.56543C64.2973 1.56543 64.444 1.61203 64.5744 1.70524C64.7095 1.61203 64.8633 1.56543 65.031 1.56543C65.2034 1.56543 65.3617 1.61203 65.5062 1.70524C65.6366 1.61203 65.76 1.56543 65.8788 1.56543C65.9953 1.56543 66.0931 1.57941 66.1677 1.60271C66.2422 1.62135 66.3074 1.64932 66.3633 1.6866C66.4751 1.75651 66.531 1.84039 66.531 1.93826C66.531 1.99418 66.5171 2.04079 66.4938 2.07807C66.4309 2.03613 66.3563 2.01283 66.2702 2.01283C66.0279 2.01283 65.8625 2.11535 65.7764 2.32041V4.00747C65.7764 4.13796 65.8043 4.23582 65.8602 4.29641C65.9464 4.4036 66.0792 4.4968 66.2608 4.57603C66.0675 4.67623 65.9441 4.75779 65.8882 4.81837C65.8136 4.91158 65.7764 5.0211 65.7764 5.1446V6.25377C65.7764 6.57766 65.8975 6.84563 66.1397 7.05535C66.3633 7.24176 66.6172 7.33497 66.9037 7.33497C67.2019 7.33497 67.4651 7.24642 67.6957 7.06467C67.9309 6.87825 68.0497 6.65223 68.0497 6.38426V5.10731C68.0497 4.9908 68.0241 4.90226 67.9752 4.84633C67.9007 4.76711 67.7632 4.67623 67.5652 4.57603C67.7446 4.48981 67.8634 4.41758 67.9193 4.36165C68.0055 4.26845 68.0497 4.16359 68.0497 4.04475V2.27381C67.9379 2.10137 67.7982 2.01283 67.6305 2.01283C67.4674 2.01283 67.3463 2.03613 67.2671 2.07807C67.2345 2.03613 67.2205 1.97321 67.2205 1.89166C67.2205 1.80544 67.2601 1.73087 67.3416 1.66796C67.4278 1.60038 67.5373 1.56543 67.6677 1.56543C67.8028 1.56543 67.924 1.60271 68.0311 1.67728C68.1243 1.60271 68.2291 1.56543 68.3479 1.56543C68.4713 1.56543 68.5808 1.60271 68.674 1.67728C68.7718 1.60271 68.8836 1.56543 69.0094 1.56543C69.1398 1.56543 69.2423 1.60038 69.3169 1.66796C69.3914 1.73786 69.4287 1.81476 69.4287 1.90098C69.4287 1.98253 69.4147 2.04079 69.3914 2.07807C69.3099 2.03613 69.1864 2.01283 69.0187 2.01283C68.851 2.01283 68.7136 2.10137 68.6088 2.27381V4.04475C68.6088 4.16359 68.6321 4.2498 68.6833 4.30573C68.7625 4.38729 68.9162 4.47816 69.1398 4.57603C68.9023 4.69487 68.7625 4.77643 68.7206 4.81837C68.646 4.89294 68.6088 4.9908 68.6088 5.10731V6.46814ZM64.8912 6.70116C64.9145 6.55902 64.9285 6.09997 64.9285 5.32169C64.9285 4.53875 64.9285 4.06106 64.9285 3.8863C64.9285 3.71386 64.9238 3.57405 64.9192 3.46686C64.9122 3.15695 64.8819 2.97053 64.826 2.90762C64.7748 2.84004 64.7282 2.79344 64.6863 2.76781C64.6863 3.69522 64.6699 4.22184 64.6397 4.35233C64.6024 4.45952 64.5116 4.53409 64.3695 4.57603C64.5302 4.63196 64.621 4.70186 64.6397 4.78109C64.6699 4.91158 64.6863 5.18887 64.6863 5.61063C64.6863 6.03473 64.6909 6.28639 64.7049 6.36561C64.7165 6.44018 64.7328 6.5031 64.7515 6.55203C64.7887 6.63359 64.8353 6.68252 64.8912 6.70116Z" fill="black"/>
<path d="M72.1187 7.8472C71.944 7.8472 71.788 7.80293 71.6529 7.71671C71.5154 7.80293 71.3873 7.8472 71.2709 7.8472C71.159 7.8472 71.0659 7.83322 70.9913 7.80992C70.9168 7.79128 70.8516 7.76564 70.7957 7.73535C70.6769 7.66079 70.6187 7.57457 70.6187 7.47437C70.6187 7.41845 70.6326 7.37184 70.6652 7.33456C70.7211 7.37883 70.7957 7.39981 70.8888 7.39981C71.1241 7.39981 71.2895 7.29728 71.3827 7.09222V5.14418C71.3827 5.02068 71.3547 4.92981 71.2988 4.87388C71.2243 4.77602 71.0868 4.67582 70.8888 4.57562C71.0682 4.49639 71.187 4.42416 71.2429 4.36124C71.3361 4.25638 71.3827 4.13754 71.3827 4.00705V2.32C71.2895 2.11494 71.1241 2.01241 70.8888 2.01241C70.7957 2.01241 70.7211 2.03572 70.6652 2.07766C70.6326 2.04038 70.6187 1.99843 70.6187 1.94717C70.6187 1.89124 70.6326 1.84231 70.6652 1.79804C70.6955 1.75609 70.7398 1.71881 70.7957 1.68619C70.9121 1.60696 71.0496 1.56502 71.2056 1.56502C71.3664 1.56502 71.5154 1.61162 71.6529 1.70483C71.788 1.61162 71.9463 1.56502 72.128 1.56502C72.3074 1.56502 72.4681 1.61861 72.6125 1.72347C72.8967 1.61861 73.2228 1.56502 73.5908 1.56502C73.8633 1.56502 74.0986 1.59298 74.2989 1.6489L74.653 1.74211C74.6949 1.75609 74.7368 1.76075 74.7741 1.76075C74.8486 1.76075 74.8859 1.70949 74.8859 1.6023C74.8859 1.579 74.8766 1.5324 74.8579 1.46249C74.9325 1.45084 75.0257 1.44385 75.1375 1.44385C75.2539 1.44385 75.3541 1.48579 75.4356 1.56502C75.5148 1.63958 75.5567 1.7491 75.5567 1.89124C75.5567 2.03572 75.5288 2.13824 75.4729 2.19883C75.5474 2.30602 75.5847 2.43651 75.5847 2.5903C75.5847 2.74642 75.5311 2.87458 75.4263 2.97245C75.4566 3.05401 75.4729 3.13556 75.4729 3.21479C75.4729 3.28936 75.4589 3.35926 75.4356 3.41985C75.41 3.48276 75.3797 3.53636 75.3424 3.5783C75.2679 3.65286 75.1934 3.69015 75.1188 3.69015C75.007 3.69015 74.9045 3.66685 74.8114 3.61558C74.8416 3.555 74.8579 3.46179 74.8579 3.33596C74.8579 3.04469 74.7857 2.78604 74.6437 2.56234C74.4433 2.25941 74.1429 2.10562 73.7399 2.10562C73.5396 2.10562 73.3579 2.15688 73.1902 2.25475C73.0271 2.35495 72.913 2.49709 72.8454 2.68351V4.23075C72.9386 4.28668 73.0248 4.31464 73.1063 4.31464C73.1925 4.31464 73.2554 4.31464 73.2927 4.31464C73.3346 4.30998 73.3789 4.30299 73.4231 4.296C73.5279 4.27735 73.6118 4.25638 73.6747 4.23075C73.7865 4.17483 73.8424 4.04434 73.8424 3.83928C73.8424 3.72277 73.8144 3.63189 73.7585 3.56898C73.8074 3.53169 73.8727 3.51305 73.9542 3.51305C74.1335 3.51305 74.264 3.58529 74.3455 3.72743C74.3688 3.77869 74.3828 3.83462 74.3828 3.8952C74.3828 3.95812 74.3665 4.03269 74.3362 4.1189C74.448 4.24939 74.5039 4.40319 74.5039 4.57562C74.5039 4.74339 74.448 4.89019 74.3362 5.01369C74.3665 5.1069 74.3828 5.19079 74.3828 5.26535C74.3828 5.33526 74.3665 5.40284 74.3362 5.47041C74.3106 5.54032 74.2756 5.59158 74.2337 5.62886C74.1522 5.70343 74.059 5.74071 73.9542 5.74071C73.8796 5.74071 73.8144 5.71974 73.7585 5.67547C73.8144 5.58226 73.8424 5.47507 73.8424 5.34924C73.8424 5.10224 73.7725 4.94845 73.6374 4.89252C73.5186 4.84359 73.3812 4.81796 73.2274 4.81796C73.0714 4.81796 72.9433 4.84592 72.8454 4.90184V6.89648C72.9992 7.17145 73.2973 7.3066 73.7399 7.3066C74.243 7.3066 74.5831 7.1528 74.7648 6.84056C74.9744 6.48637 75.0816 6.10888 75.0816 5.70343C75.0816 5.58692 75.0722 5.49604 75.0536 5.43313C75.1142 5.36555 75.1794 5.3306 75.2493 5.3306C75.3238 5.3306 75.3797 5.34458 75.417 5.36788C75.4542 5.38652 75.4869 5.40983 75.5195 5.43313C75.58 5.50769 75.6126 5.58226 75.6126 5.65683L75.594 5.85256C75.594 5.90382 75.6056 5.94344 75.6313 5.97373C75.6872 6.02966 75.7151 6.08325 75.7151 6.13218C75.7151 6.18345 75.6988 6.2417 75.6685 6.30928C75.7244 6.34656 75.7757 6.40016 75.8269 6.46773C75.8758 6.53764 75.9015 6.60521 75.9015 6.67279C75.9015 6.82891 75.8386 6.96639 75.7151 7.0829C75.771 7.16446 75.799 7.27864 75.799 7.42777C75.799 7.5769 75.7547 7.70506 75.6685 7.80992C75.58 7.91478 75.4682 7.96837 75.3331 7.96837C75.2586 7.96837 75.1794 7.96138 75.1002 7.94973C75.1049 7.88681 75.1095 7.82856 75.1095 7.77263C75.1095 7.64914 75.0536 7.58622 74.9418 7.58622C74.816 7.58622 74.6926 7.61185 74.5691 7.66079C74.2756 7.78429 73.9402 7.8472 73.5629 7.8472C73.1832 7.8472 72.8641 7.79594 72.6032 7.69807C72.4658 7.79594 72.3051 7.8472 72.1187 7.8472ZM71.7647 6.70075C71.8951 6.65182 71.965 6.47705 71.979 6.17879C71.9976 5.88052 72.0069 5.46808 72.0069 4.93913C72.0069 4.41251 72.0022 4.06065 71.9976 3.88588C71.9976 3.71345 71.9976 3.57364 71.9976 3.46645C71.9906 3.15654 71.9603 2.97012 71.9044 2.9072C71.8532 2.83963 71.8066 2.79303 71.7647 2.76739C71.7647 3.69481 71.7484 4.22143 71.7181 4.35192C71.6808 4.45911 71.5876 4.53368 71.4386 4.57562C71.5993 4.63154 71.6925 4.70145 71.7181 4.78068C71.7484 4.91117 71.7647 5.38186 71.7647 6.18811V6.70075ZM72.7709 6.66347C72.7709 6.67046 72.7709 6.67745 72.7709 6.68211V6.66347Z" fill="black"/>
<path d="M79.1431 7.71712C79.0057 7.80334 78.8496 7.84761 78.6773 7.84761C78.5096 7.84761 78.3558 7.80334 78.2207 7.71712C78.0833 7.80334 77.9552 7.84761 77.8387 7.84761C77.7269 7.84761 77.6337 7.83363 77.5592 7.81033C77.4847 7.79169 77.4195 7.76606 77.3635 7.73576C77.2448 7.6612 77.1865 7.57498 77.1865 7.47478C77.1865 7.41886 77.2005 7.37225 77.2331 7.33497C77.289 7.37925 77.3635 7.40022 77.4567 7.40022C77.692 7.40022 77.8574 7.29769 77.9505 7.09263V5.1446C77.9505 5.0211 77.9226 4.93022 77.8667 4.87429C77.7921 4.77643 77.6547 4.67623 77.4567 4.57603C77.6361 4.4968 77.7549 4.42457 77.8108 4.36165C77.9039 4.2568 77.9505 4.13796 77.9505 4.00747V2.32041C77.8574 2.11535 77.692 2.01283 77.4567 2.01283C77.3635 2.01283 77.289 2.03613 77.2331 2.07807C77.2005 2.04079 77.1865 1.99884 77.1865 1.94758C77.1865 1.89166 77.2005 1.84272 77.2331 1.79845C77.2634 1.75651 77.3076 1.71922 77.3635 1.6866C77.48 1.60737 77.6174 1.56543 77.7735 1.56543C77.9342 1.56543 78.0833 1.61203 78.2207 1.70524C78.3558 1.61203 78.5096 1.56543 78.6773 1.56543C78.8496 1.56543 79.0057 1.61203 79.1431 1.70524C79.2782 1.61203 79.404 1.56543 79.5158 1.56543C79.6323 1.56543 79.7301 1.57941 79.8046 1.60271C79.8792 1.62135 79.9444 1.64932 80.0003 1.6866C80.1168 1.75651 80.1773 1.84039 80.1773 1.93826C80.1773 1.99418 80.161 2.04079 80.1307 2.07807C80.0748 2.03613 80.0003 2.01283 79.9071 2.01283C79.6695 2.01283 79.5065 2.11535 79.4133 2.32041V4.00747C79.4133 4.13796 79.4413 4.23582 79.4972 4.29641C79.5903 4.4036 79.7254 4.4968 79.9071 4.57603C79.7068 4.67623 79.5834 4.75779 79.5344 4.81837C79.4529 4.91158 79.4133 5.0211 79.4133 5.1446V7.09263C79.5065 7.29769 79.6695 7.40022 79.9071 7.40022C80.0003 7.40022 80.0748 7.37925 80.1307 7.33497C80.161 7.37225 80.1773 7.41886 80.1773 7.47478C80.1773 7.52605 80.161 7.57265 80.1307 7.61459C80.0981 7.65887 80.0562 7.69848 80.0003 7.73576C79.8815 7.81033 79.7417 7.84761 79.581 7.84761C79.425 7.84761 79.2782 7.80334 79.1431 7.71712ZM78.3325 6.70116C78.463 6.65223 78.5328 6.47746 78.5468 6.1792C78.5655 5.88094 78.5748 5.46849 78.5748 4.93954C78.5748 4.41292 78.5701 4.06106 78.5655 3.8863C78.5655 3.71386 78.5655 3.57405 78.5655 3.46686C78.5585 3.15695 78.5282 2.97053 78.4723 2.90762C78.421 2.84004 78.3745 2.79344 78.3325 2.76781C78.3325 3.69522 78.3162 4.22184 78.2859 4.35233C78.2487 4.45952 78.1555 4.53409 78.0064 4.57603C78.1672 4.63196 78.2603 4.70186 78.2859 4.78109C78.3162 4.91158 78.3325 5.38227 78.3325 6.18852V6.70116Z" fill="black"/>
<path d="M83.0877 7.84761C82.913 7.84761 82.7569 7.80334 82.6218 7.71712C82.4844 7.80334 82.3563 7.84761 82.2398 7.84761C82.128 7.84761 82.0349 7.83363 81.9603 7.81033C81.8858 7.79169 81.8206 7.76606 81.7647 7.73576C81.6459 7.6612 81.5876 7.57498 81.5876 7.47478C81.5876 7.41886 81.6016 7.37226 81.6342 7.33497C81.6901 7.37925 81.7647 7.40022 81.8578 7.40022C82.0931 7.40022 82.2585 7.29769 82.3517 7.09263V5.1446C82.3517 5.0211 82.3237 4.93022 82.2678 4.87429C82.1933 4.77643 82.0558 4.67623 81.8578 4.57603C82.0372 4.4968 82.156 4.42457 82.2119 4.36165C82.3051 4.2568 82.3517 4.13796 82.3517 4.00747V2.32041C82.2585 2.11535 82.0931 2.01283 81.8578 2.01283C81.7647 2.01283 81.6901 2.03613 81.6342 2.07807C81.6016 2.04079 81.5876 1.99884 81.5876 1.94758C81.5876 1.89166 81.6016 1.84272 81.6342 1.79845C81.6645 1.75651 81.7088 1.71922 81.7647 1.6866C81.8811 1.60737 82.0186 1.56543 82.1746 1.56543C82.3353 1.56543 82.4844 1.61203 82.6218 1.70524C82.7569 1.61203 82.9107 1.56543 83.0784 1.56543C83.2508 1.56543 83.4068 1.61203 83.5442 1.70524C83.6933 1.61203 83.8284 1.56543 83.9542 1.56543C84.0776 1.56543 84.1778 1.57941 84.2523 1.60271C84.3269 1.62135 84.3921 1.64932 84.448 1.6866C84.5598 1.75651 84.6157 1.84039 84.6157 1.93826C84.6157 1.99418 84.5994 2.04079 84.5691 2.07807C84.5132 2.03613 84.434 2.01283 84.3362 2.01283C84.236 2.01283 84.1359 2.04079 84.0381 2.09671C83.9379 2.14798 83.8634 2.22487 83.8144 2.32973V4.00747C83.8144 4.13796 83.8424 4.23582 83.8983 4.29641C83.9915 4.4036 84.1266 4.4968 84.3082 4.57603C84.1079 4.67623 83.9845 4.75779 83.9356 4.81837C83.854 4.91158 83.8144 5.0211 83.8144 5.1446V6.88758C83.9938 7.1672 84.2151 7.30701 84.476 7.30701C85.1282 7.30701 85.5474 7.03205 85.7338 6.47746C85.813 6.23512 85.8549 6.01143 85.8549 5.80637C85.8549 5.60131 85.8269 5.46616 85.771 5.39626C85.8316 5.34732 85.8945 5.32169 85.9574 5.32169C86.0249 5.32169 86.0878 5.33567 86.1437 5.35897C86.1996 5.38461 86.2509 5.42422 86.3021 5.48014C86.3953 5.58733 86.4419 5.71316 86.4419 5.86229C86.4419 6.01143 86.4279 6.12793 86.4046 6.20716C86.5211 6.31435 86.5816 6.45882 86.5816 6.64524C86.5816 6.82699 86.5304 6.97146 86.4326 7.08331C86.5187 7.19516 86.563 7.29769 86.563 7.3909C86.563 7.47944 86.549 7.55634 86.5257 7.62392C86.5001 7.68683 86.4628 7.74275 86.4139 7.79169C86.3138 7.89655 86.1926 7.95014 86.0506 7.95014C85.9807 7.95014 85.9201 7.93383 85.8642 7.90354C85.8759 7.84761 85.8828 7.79169 85.8828 7.73576C85.8828 7.61226 85.8269 7.54935 85.7151 7.54935C85.6266 7.54935 85.5125 7.5843 85.3704 7.65188C85.0839 7.78237 84.7601 7.84761 84.4014 7.84761C84.0404 7.84761 83.7609 7.80101 83.5629 7.7078C83.4185 7.80101 83.2601 7.84761 83.0877 7.84761ZM82.7337 6.70116C82.8641 6.65223 82.934 6.47746 82.9479 6.1792C82.9666 5.88094 82.9759 5.46849 82.9759 4.93954C82.9759 4.41292 82.9712 4.06106 82.9666 3.8863C82.9666 3.71386 82.9666 3.57405 82.9666 3.46686C82.9596 3.15695 82.9293 2.97053 82.8734 2.90762C82.8222 2.84004 82.7756 2.79344 82.7337 2.76781C82.7337 3.69522 82.7173 4.22184 82.6871 4.35233C82.6498 4.45952 82.5566 4.53409 82.4076 4.57603C82.5683 4.63196 82.6614 4.70186 82.6871 4.78109C82.7173 4.91158 82.7337 5.38228 82.7337 6.18852V6.70116Z" fill="black"/>
<path d="M89.2962 7.84761C89.1215 7.84761 88.9654 7.80334 88.8303 7.71712C88.6929 7.80334 88.5648 7.84761 88.4483 7.84761C88.3365 7.84761 88.2434 7.83363 88.1688 7.81033C88.0943 7.79169 88.0291 7.76606 87.9732 7.73576C87.8544 7.6612 87.7961 7.57498 87.7961 7.47478C87.7961 7.41886 87.8101 7.37226 87.8427 7.33497C87.8986 7.37925 87.9732 7.40022 88.0663 7.40022C88.3016 7.40022 88.467 7.29769 88.5601 7.09263V5.1446C88.5601 5.0211 88.5322 4.93022 88.4763 4.87429C88.4018 4.77643 88.2643 4.67623 88.0663 4.57603C88.2457 4.4968 88.3645 4.42457 88.4204 4.36165C88.5136 4.2568 88.5601 4.13796 88.5601 4.00747V2.32041C88.467 2.11535 88.3016 2.01283 88.0663 2.01283C87.9732 2.01283 87.8986 2.03613 87.8427 2.07807C87.8101 2.04079 87.7961 1.99884 87.7961 1.94758C87.7961 1.89166 87.8101 1.84272 87.8427 1.79845C87.873 1.75651 87.9173 1.71922 87.9732 1.6866C88.0896 1.60737 88.2271 1.56543 88.3831 1.56543C88.5438 1.56543 88.6929 1.61203 88.8303 1.70524C88.9654 1.61203 89.1192 1.56543 89.2869 1.56543C89.4592 1.56543 89.6153 1.61203 89.7527 1.70524C89.9018 1.61203 90.0369 1.56543 90.1627 1.56543C90.2861 1.56543 90.3863 1.57941 90.4608 1.60271C90.5354 1.62135 90.6006 1.64932 90.6565 1.6866C90.7683 1.75651 90.8242 1.84039 90.8242 1.93826C90.8242 1.99418 90.8079 2.04079 90.7776 2.07807C90.7217 2.03613 90.6425 2.01283 90.5447 2.01283C90.4445 2.01283 90.3444 2.04079 90.2465 2.09671C90.1464 2.14798 90.0719 2.22487 90.0229 2.32973V4.00747C90.0229 4.13796 90.0509 4.23582 90.1068 4.29641C90.2 4.4036 90.3351 4.4968 90.5167 4.57603C90.3164 4.67623 90.193 4.75779 90.1441 4.81837C90.0625 4.91158 90.0229 5.0211 90.0229 5.1446V6.88758C90.2023 7.1672 90.4236 7.30701 90.6845 7.30701C91.3367 7.30701 91.7559 7.03205 91.9423 6.47746C92.0215 6.23512 92.0634 6.01143 92.0634 5.80637C92.0634 5.60131 92.0354 5.46616 91.9795 5.39626C92.0401 5.34732 92.103 5.32169 92.1659 5.32169C92.2334 5.32169 92.2963 5.33567 92.3522 5.35897C92.4081 5.38461 92.4594 5.42422 92.5106 5.48014C92.6038 5.58733 92.6504 5.71316 92.6504 5.86229C92.6504 6.01143 92.6364 6.12793 92.6131 6.20716C92.7296 6.31435 92.7901 6.45882 92.7901 6.64524C92.7901 6.82699 92.7389 6.97146 92.6411 7.08331C92.7272 7.19516 92.7715 7.29769 92.7715 7.3909C92.7715 7.47944 92.7575 7.55634 92.7342 7.62392C92.7086 7.68683 92.6713 7.74275 92.6224 7.79169C92.5223 7.89655 92.4011 7.95014 92.259 7.95014C92.1892 7.95014 92.1286 7.93383 92.0727 7.90354C92.0844 7.84761 92.0913 7.79169 92.0913 7.73576C92.0913 7.61226 92.0354 7.54935 91.9236 7.54935C91.8351 7.54935 91.721 7.5843 91.5789 7.65188C91.2924 7.78237 90.9686 7.84761 90.6099 7.84761C90.2489 7.84761 89.9694 7.80101 89.7714 7.7078C89.627 7.80101 89.4686 7.84761 89.2962 7.84761ZM88.9421 6.70116C89.0726 6.65223 89.1425 6.47746 89.1564 6.1792C89.1751 5.88094 89.1844 5.46849 89.1844 4.93954C89.1844 4.41292 89.1797 4.06106 89.1751 3.8863C89.1751 3.71386 89.1751 3.57405 89.1751 3.46686C89.1681 3.15695 89.1378 2.97053 89.0819 2.90762C89.0307 2.84004 88.9841 2.79344 88.9421 2.76781C88.9421 3.69522 88.9258 4.22184 88.8956 4.35233C88.8583 4.45952 88.7651 4.53409 88.6161 4.57603C88.7768 4.63196 88.8699 4.70186 88.8956 4.78109C88.9258 4.91158 88.9421 5.38228 88.9421 6.18852V6.70116Z" fill="black"/>
<path d="M95.9615 7.71712C95.8241 7.80334 95.668 7.84761 95.4956 7.84761C95.3279 7.84761 95.1742 7.80334 95.0391 7.71712C94.9017 7.80334 94.7735 7.84761 94.6571 7.84761C94.5453 7.84761 94.4521 7.83363 94.3776 7.81033C94.303 7.79169 94.2378 7.76606 94.1819 7.73576C94.0631 7.6612 94.0049 7.57498 94.0049 7.47478C94.0049 7.41886 94.0189 7.37225 94.0515 7.33497C94.1074 7.37925 94.1819 7.40022 94.2751 7.40022C94.5103 7.40022 94.6757 7.29769 94.7689 7.09263V5.1446C94.7689 5.0211 94.7409 4.93022 94.685 4.87429C94.6105 4.77643 94.4731 4.67623 94.2751 4.57603C94.4544 4.4968 94.5732 4.42457 94.6291 4.36165C94.7223 4.2568 94.7689 4.13796 94.7689 4.00747V2.32041C94.6757 2.11535 94.5103 2.01283 94.2751 2.01283C94.1819 2.01283 94.1074 2.03613 94.0515 2.07807C94.0189 2.04079 94.0049 1.99884 94.0049 1.94758C94.0049 1.89166 94.0189 1.84272 94.0515 1.79845C94.0817 1.75651 94.126 1.71922 94.1819 1.6866C94.2984 1.60737 94.4358 1.56543 94.5919 1.56543C94.7526 1.56543 94.9017 1.61203 95.0391 1.70524C95.1742 1.61203 95.3279 1.56543 95.4956 1.56543C95.668 1.56543 95.8241 1.61203 95.9615 1.70524C96.0966 1.61203 96.2224 1.56543 96.3342 1.56543C96.4506 1.56543 96.5485 1.57941 96.623 1.60271C96.6975 1.62135 96.7628 1.64932 96.8187 1.6866C96.9351 1.75651 96.9957 1.84039 96.9957 1.93826C96.9957 1.99418 96.9794 2.04079 96.9491 2.07807C96.8932 2.03613 96.8187 2.01283 96.7255 2.01283C96.4879 2.01283 96.3248 2.11535 96.2317 2.32041V4.00747C96.2317 4.13796 96.2596 4.23582 96.3155 4.29641C96.4087 4.4036 96.5438 4.4968 96.7255 4.57603C96.5252 4.67623 96.4017 4.75779 96.3528 4.81837C96.2713 4.91158 96.2317 5.0211 96.2317 5.1446V7.09263C96.3248 7.29769 96.4879 7.40022 96.7255 7.40022C96.8187 7.40022 96.8932 7.37925 96.9491 7.33497C96.9794 7.37225 96.9957 7.41886 96.9957 7.47478C96.9957 7.52605 96.9794 7.57265 96.9491 7.61459C96.9165 7.65887 96.8746 7.69848 96.8187 7.73576C96.6999 7.81033 96.5601 7.84761 96.3994 7.84761C96.2433 7.84761 96.0966 7.80334 95.9615 7.71712ZM95.1509 6.70116C95.2813 6.65223 95.3512 6.47746 95.3652 6.1792C95.3838 5.88094 95.3931 5.46849 95.3931 4.93954C95.3931 4.41292 95.3885 4.06106 95.3838 3.8863C95.3838 3.71386 95.3838 3.57405 95.3838 3.46686C95.3768 3.15695 95.3465 2.97053 95.2906 2.90762C95.2394 2.84004 95.1928 2.79344 95.1509 2.76781C95.1509 3.69522 95.1346 4.22184 95.1043 4.35233C95.067 4.45952 94.9739 4.53409 94.8248 4.57603C94.9855 4.63196 95.0787 4.70186 95.1043 4.78109C95.1346 4.91158 95.1509 5.38227 95.1509 6.18852V6.70116Z" fill="black"/>
<path d="M99.5146 7.60499C99.3027 7.8217 99.1 7.93122 98.909 7.93122C98.7832 7.93122 98.6994 7.88461 98.6575 7.79141C98.718 7.71684 98.7506 7.60499 98.7506 7.45586V7.39994C98.7506 7.38129 98.7506 7.36731 98.7506 7.35333C98.6132 7.23682 98.5457 7.09701 98.5457 6.9339C98.5457 6.76612 98.6225 6.59602 98.7786 6.42126C98.7343 6.33504 98.7134 6.24183 98.7134 6.14163C98.7134 6.03678 98.7273 5.94124 98.7599 5.85269C98.7902 5.75948 98.8298 5.68026 98.8811 5.61035C98.9929 5.46821 99.1 5.39597 99.2072 5.39597C99.319 5.39597 99.3958 5.43792 99.4401 5.51714C99.3469 5.62433 99.3003 5.78512 99.3003 6.00182C99.3003 6.21387 99.3306 6.40029 99.3935 6.56107C99.4541 6.72418 99.5426 6.85933 99.6544 6.97118C99.9013 7.22051 100.216 7.34401 100.595 7.34401C100.849 7.34401 101.066 7.27411 101.248 7.12963C101.439 6.97584 101.536 6.76146 101.536 6.4865C101.536 6.29543 101.49 6.1393 101.397 6.02046C101.259 5.83405 101.038 5.63598 100.735 5.42394C100.505 5.26315 100.321 5.1816 100.185 5.1816C100.041 5.1816 99.8827 5.23752 99.7103 5.34937C99.7592 5.21888 99.7848 5.09538 99.7848 4.97654C99.7848 4.94625 99.7569 4.9113 99.701 4.87401L99.5612 4.7342C99.0954 4.30545 98.8182 3.90932 98.732 3.54115C98.6994 3.41765 98.6854 3.25919 98.6854 3.06579C98.6854 2.87471 98.732 2.67898 98.8252 2.47858C98.923 2.28052 99.0534 2.11041 99.2165 1.96594C99.5566 1.67467 99.9945 1.52786 100.53 1.52786C100.852 1.52786 101.147 1.58146 101.415 1.68632C101.527 1.73059 101.658 1.75156 101.807 1.75156C101.867 1.75156 101.923 1.74923 101.974 1.74224C102.023 1.73758 102.068 1.70962 102.105 1.65836C102.135 1.60942 102.151 1.56515 102.151 1.52786C102.151 1.48592 102.147 1.45097 102.142 1.42534C102.161 1.42068 102.184 1.41602 102.217 1.41602C102.247 1.41602 102.282 1.43 102.319 1.4533C102.361 1.47194 102.398 1.4999 102.431 1.53719C102.505 1.63039 102.543 1.73758 102.543 1.85409C102.543 1.96594 102.51 2.04983 102.45 2.10575C102.536 2.18731 102.58 2.31081 102.58 2.47858C102.58 2.64169 102.524 2.77684 102.412 2.88869C102.436 2.96326 102.45 3.0285 102.45 3.08443C102.45 3.14035 102.436 3.19628 102.412 3.2522C102.394 3.30347 102.368 3.34541 102.338 3.38269C102.256 3.46425 102.182 3.50386 102.114 3.50386C102.002 3.50386 101.909 3.48522 101.835 3.44794C101.884 3.34308 101.909 3.23123 101.909 3.11239C101.909 2.98889 101.881 2.86073 101.825 2.73024C101.769 2.59975 101.69 2.4879 101.592 2.39469C101.387 2.19663 101.117 2.09643 100.782 2.09643C100.57 2.09643 100.395 2.16168 100.26 2.29217C100.13 2.418 100.064 2.56713 100.064 2.73956C100.064 2.87005 100.095 2.97957 100.158 3.06579C100.269 3.21492 100.446 3.37104 100.689 3.53183L100.884 3.66232C100.989 3.73222 101.061 3.76484 101.099 3.76484C101.136 3.76484 101.173 3.76251 101.21 3.75552C101.248 3.74387 101.287 3.73222 101.331 3.71824C101.429 3.68795 101.522 3.64367 101.611 3.58775L101.564 3.81145C101.546 3.88601 101.536 3.93961 101.536 3.9699C101.536 4.02582 101.564 4.07709 101.62 4.11903C102.116 4.55478 102.45 4.91829 102.617 5.20956C102.766 5.45889 102.841 5.73152 102.841 6.02979C102.841 6.32339 102.79 6.57505 102.692 6.78477C102.599 6.98982 102.461 7.17624 102.282 7.34401C101.872 7.70519 101.343 7.88461 100.698 7.88461C100.244 7.88461 99.8501 7.79141 99.5146 7.60499ZM99.2444 2.76752C99.1373 2.8118 99.086 2.92365 99.086 3.10307C99.086 3.46425 99.3306 3.86504 99.8221 4.30545L100.064 4.51982C100.144 4.59439 100.178 4.65497 100.167 4.69692C100.16 4.7342 100.153 4.76682 100.148 4.79013C100.141 4.80877 100.132 4.83207 100.12 4.85537C100.113 4.87401 100.111 4.89032 100.111 4.90198C100.204 4.84605 100.279 4.81809 100.335 4.81809C100.451 4.81809 100.563 4.85071 100.67 4.9113C101.185 5.23519 101.532 5.5218 101.713 5.7688C101.849 5.95522 101.918 6.18591 101.918 6.45854C101.918 6.55874 101.911 6.64029 101.9 6.70088C102.042 6.61466 102.114 6.47252 102.114 6.27212C102.114 6.08105 102.086 5.93425 102.03 5.83405C101.979 5.72919 101.921 5.63598 101.853 5.55443C101.783 5.4752 101.695 5.38665 101.583 5.29345C101.471 5.19558 101.334 5.08839 101.173 4.97654L100.605 4.58507C100.139 4.28215 99.7848 3.95825 99.5426 3.61571C99.3306 3.31745 99.2305 3.0355 99.2444 2.76752Z" fill="black"/>
<path d="M108.544 7.8472C108.37 7.8472 108.214 7.80293 108.079 7.71671C107.941 7.80293 107.813 7.8472 107.697 7.8472C107.585 7.8472 107.492 7.83322 107.417 7.80992C107.343 7.79128 107.277 7.76564 107.221 7.73535C107.103 7.66079 107.044 7.57457 107.044 7.47437C107.044 7.41845 107.058 7.37184 107.091 7.33456C107.147 7.37883 107.221 7.39981 107.315 7.39981C107.55 7.39981 107.715 7.29728 107.808 7.09222V5.14418C107.808 5.02068 107.78 4.92981 107.725 4.87388C107.65 4.77602 107.513 4.67582 107.315 4.57562C107.494 4.49639 107.613 4.42416 107.669 4.36124C107.762 4.25638 107.808 4.13754 107.808 4.00705V2.32C107.715 2.11494 107.55 2.01241 107.315 2.01241C107.221 2.01241 107.147 2.03572 107.091 2.07766C107.058 2.04038 107.044 1.99843 107.044 1.94717C107.044 1.89124 107.058 1.84231 107.091 1.79804C107.121 1.75609 107.166 1.71881 107.221 1.68619C107.338 1.60696 107.475 1.56502 107.631 1.56502C107.792 1.56502 107.941 1.61162 108.079 1.70483C108.214 1.61162 108.372 1.56502 108.554 1.56502C108.733 1.56502 108.894 1.61861 109.038 1.72347C109.322 1.61861 109.649 1.56502 110.017 1.56502C110.289 1.56502 110.524 1.59298 110.725 1.6489L111.079 1.74211C111.121 1.75609 111.163 1.76075 111.2 1.76075C111.274 1.76075 111.312 1.70949 111.312 1.6023C111.312 1.579 111.302 1.5324 111.284 1.46249C111.358 1.45084 111.451 1.44385 111.563 1.44385C111.68 1.44385 111.78 1.48579 111.861 1.56502C111.941 1.63958 111.983 1.7491 111.983 1.89124C111.983 2.03572 111.955 2.13824 111.899 2.19883C111.973 2.30602 112.01 2.43651 112.01 2.5903C112.01 2.74642 111.957 2.87458 111.852 2.97245C111.882 3.05401 111.899 3.13556 111.899 3.21479C111.899 3.28936 111.885 3.35926 111.861 3.41985C111.836 3.48276 111.805 3.53636 111.768 3.5783C111.694 3.65286 111.619 3.69015 111.545 3.69015C111.433 3.69015 111.33 3.66685 111.237 3.61558C111.267 3.555 111.284 3.46179 111.284 3.33596C111.284 3.04469 111.212 2.78604 111.069 2.56234C110.869 2.25941 110.569 2.10562 110.166 2.10562C109.965 2.10562 109.784 2.15688 109.616 2.25475C109.453 2.35495 109.339 2.49709 109.271 2.68351V4.23075C109.364 4.28668 109.451 4.31464 109.532 4.31464C109.618 4.31464 109.681 4.31464 109.718 4.31464C109.76 4.30998 109.805 4.30299 109.849 4.296C109.954 4.27735 110.038 4.25638 110.1 4.23075C110.212 4.17483 110.268 4.04434 110.268 3.83928C110.268 3.72277 110.24 3.63189 110.184 3.56898C110.233 3.53169 110.298 3.51305 110.38 3.51305C110.559 3.51305 110.69 3.58529 110.771 3.72743C110.795 3.77869 110.809 3.83462 110.809 3.8952C110.809 3.95812 110.792 4.03269 110.762 4.1189C110.874 4.24939 110.93 4.40319 110.93 4.57562C110.93 4.74339 110.874 4.89019 110.762 5.01369C110.792 5.1069 110.809 5.19079 110.809 5.26535C110.809 5.33526 110.792 5.40284 110.762 5.47041C110.736 5.54032 110.701 5.59158 110.659 5.62886C110.578 5.70343 110.485 5.74071 110.38 5.74071C110.305 5.74071 110.24 5.71974 110.184 5.67547C110.24 5.58226 110.268 5.47507 110.268 5.34924C110.268 5.10224 110.198 4.94845 110.063 4.89252C109.944 4.84359 109.807 4.81796 109.653 4.81796C109.497 4.81796 109.369 4.84592 109.271 4.90184V6.89648C109.425 7.17145 109.723 7.3066 110.166 7.3066C110.669 7.3066 111.009 7.1528 111.191 6.84056C111.4 6.48637 111.507 6.10888 111.507 5.70343C111.507 5.58692 111.498 5.49604 111.479 5.43313C111.54 5.36555 111.605 5.3306 111.675 5.3306C111.75 5.3306 111.805 5.34458 111.843 5.36788C111.88 5.38652 111.913 5.40983 111.945 5.43313C112.006 5.50769 112.038 5.58226 112.038 5.65683L112.02 5.85256C112.02 5.90382 112.031 5.94344 112.057 5.97373C112.113 6.02966 112.141 6.08325 112.141 6.13218C112.141 6.18345 112.125 6.2417 112.094 6.30928C112.15 6.34656 112.201 6.40016 112.253 6.46773C112.302 6.53764 112.327 6.60521 112.327 6.67279C112.327 6.82891 112.264 6.96639 112.141 7.0829C112.197 7.16446 112.225 7.27864 112.225 7.42777C112.225 7.5769 112.181 7.70506 112.094 7.80992C112.006 7.91478 111.894 7.96837 111.759 7.96837C111.684 7.96837 111.605 7.96138 111.526 7.94973C111.531 7.88681 111.535 7.82856 111.535 7.77263C111.535 7.64914 111.479 7.58622 111.368 7.58622C111.242 7.58622 111.118 7.61185 110.995 7.66079C110.701 7.78429 110.366 7.8472 109.989 7.8472C109.609 7.8472 109.29 7.79594 109.029 7.69807C108.892 7.79594 108.731 7.8472 108.544 7.8472ZM108.19 6.70075C108.321 6.65182 108.391 6.47705 108.405 6.17879C108.423 5.88052 108.433 5.46808 108.433 4.93913C108.433 4.41251 108.428 4.06065 108.423 3.88588C108.423 3.71345 108.423 3.57364 108.423 3.46645C108.416 3.15654 108.386 2.97012 108.33 2.9072C108.279 2.83963 108.232 2.79303 108.19 2.76739C108.19 3.69481 108.174 4.22143 108.144 4.35192C108.107 4.45911 108.013 4.53368 107.864 4.57562C108.025 4.63154 108.118 4.70145 108.144 4.78068C108.174 4.91117 108.19 5.38186 108.19 6.18811V6.70075ZM109.197 6.66347C109.197 6.67046 109.197 6.67745 109.197 6.68211V6.66347Z" fill="black"/>
<path d="M116.789 7.70756C116.652 7.80077 116.501 7.84737 116.333 7.84737C116.165 7.84737 116.009 7.80077 115.867 7.70756C115.718 7.80077 115.58 7.84737 115.457 7.84737C115.331 7.84737 115.233 7.83339 115.159 7.81009C115.084 7.79145 115.019 7.76582 114.963 7.73553C114.851 7.66096 114.796 7.57474 114.796 7.47454C114.796 7.41862 114.809 7.37202 114.842 7.33473C114.898 7.37901 114.973 7.39998 115.066 7.39998C115.164 7.39998 115.264 7.37668 115.364 7.32541C115.469 7.27648 115.546 7.19958 115.597 7.09239V5.14436C115.597 5.02086 115.571 4.92998 115.522 4.87406C115.441 4.77619 115.301 4.67599 115.103 4.57579C115.289 4.49657 115.406 4.42433 115.457 4.36142C115.55 4.25656 115.597 4.13772 115.597 4.00723V2.1524C115.508 2.12211 115.403 2.10579 115.28 2.10579C115.161 2.10579 115.033 2.14075 114.898 2.20832C114.768 2.27124 114.649 2.36211 114.544 2.47862C114.302 2.75825 114.181 3.12176 114.181 3.56915C114.181 3.82547 114.223 4.01422 114.311 4.13772C114.278 4.20762 114.22 4.24025 114.134 4.24025C114.045 4.24025 113.966 4.2216 113.892 4.18432C113.822 4.14238 113.764 4.08645 113.715 4.01655C113.615 3.8814 113.566 3.73226 113.566 3.56915C113.566 3.40837 113.594 3.27089 113.65 3.15904C113.549 3.04253 113.5 2.91204 113.5 2.76757C113.5 2.61844 113.54 2.49494 113.622 2.39474C113.51 2.27823 113.454 2.11512 113.454 1.91006C113.454 1.6817 113.561 1.52558 113.78 1.44402C113.841 1.42072 113.896 1.40674 113.948 1.40674C114.034 1.40674 114.101 1.42538 114.153 1.46266C114.134 1.53257 114.125 1.57917 114.125 1.60247C114.125 1.70966 114.162 1.76093 114.236 1.76093C114.274 1.76093 114.313 1.75627 114.358 1.74229L114.535 1.69568C114.844 1.60946 115.103 1.56519 115.308 1.56519C115.518 1.56519 115.704 1.61179 115.867 1.705C115.997 1.61179 116.149 1.56519 116.324 1.56519C116.496 1.56519 116.654 1.61179 116.799 1.705C116.948 1.61179 117.102 1.56519 117.265 1.56519C117.525 1.56519 117.751 1.59315 117.945 1.64908L118.299 1.74229C118.341 1.75627 118.385 1.76093 118.429 1.76093C118.504 1.76093 118.541 1.70966 118.541 1.60247C118.541 1.57917 118.532 1.53257 118.513 1.46266C118.555 1.42538 118.611 1.40674 118.681 1.40674C118.748 1.40674 118.814 1.42072 118.876 1.44402C118.944 1.46965 119.002 1.50461 119.053 1.54655C119.151 1.63976 119.203 1.77491 119.203 1.94734C119.203 2.12211 119.147 2.27124 119.035 2.39474C119.114 2.49494 119.156 2.61844 119.156 2.76757C119.156 2.91204 119.105 3.04253 119.007 3.15904C119.067 3.27089 119.1 3.38274 119.1 3.49459C119.1 3.60177 119.084 3.69731 119.053 3.78353C119.028 3.87208 118.991 3.94897 118.942 4.01655C118.83 4.16568 118.692 4.24025 118.532 4.24025C118.439 4.24025 118.376 4.20762 118.345 4.13772C118.432 4.01422 118.476 3.83013 118.476 3.58779C118.476 3.34079 118.441 3.12642 118.373 2.94466C118.31 2.75825 118.227 2.60445 118.122 2.47862C117.903 2.23162 117.649 2.10579 117.358 2.10579C117.246 2.10579 117.148 2.12211 117.069 2.1524V4.00723C117.069 4.13772 117.097 4.23559 117.153 4.29617C117.239 4.40336 117.372 4.49657 117.553 4.57579C117.36 4.67599 117.237 4.75755 117.181 4.81813C117.106 4.91134 117.069 5.02086 117.069 5.14436V7.09239C117.111 7.19958 117.183 7.27648 117.283 7.32541C117.381 7.37668 117.481 7.39998 117.581 7.39998C117.679 7.39998 117.761 7.37901 117.824 7.33473C117.847 7.37202 117.861 7.41862 117.861 7.47454C117.861 7.52581 117.845 7.57241 117.814 7.61436C117.782 7.65863 117.742 7.69824 117.693 7.73553C117.567 7.81009 117.423 7.84737 117.255 7.84737C117.092 7.84737 116.938 7.80077 116.789 7.70756ZM115.979 6.70092C116.109 6.65199 116.184 6.47722 116.202 6.17896C116.214 5.8807 116.221 5.46825 116.221 4.9393C116.221 4.41268 116.221 4.06082 116.221 3.88606C116.221 3.71362 116.216 3.57381 116.212 3.46662C116.205 3.15671 116.174 2.97029 116.119 2.90738C116.067 2.8398 116.021 2.7932 115.979 2.76757C115.979 3.69498 115.962 4.2216 115.932 4.35209C115.895 4.45928 115.804 4.53385 115.662 4.57579C115.816 4.63172 115.907 4.70162 115.932 4.78085C115.962 4.91134 115.979 5.38204 115.979 6.18828V6.70092Z" fill="black"/>
<path d="M123.986 7.73576C123.886 7.81033 123.774 7.84761 123.65 7.84761C123.525 7.84761 123.422 7.81499 123.343 7.75441C123.268 7.68683 123.231 7.60993 123.231 7.52139C123.231 7.43517 123.245 7.37225 123.278 7.33497C123.352 7.37925 123.473 7.40022 123.641 7.40022C123.709 7.40022 123.781 7.36759 123.855 7.29769C123.935 7.23011 124 7.13691 124.051 7.01807V5.1446C124.051 5.0211 124.025 4.92789 123.977 4.86497C123.895 4.76711 123.758 4.66924 123.567 4.57603C123.758 4.48282 123.879 4.40593 123.93 4.34301C124.009 4.24514 124.051 4.1333 124.051 4.00747L124.06 2.26449C123.991 2.09671 123.848 2.01283 123.632 2.01283C123.52 2.01283 123.439 2.03613 123.39 2.07807C123.357 2.04778 123.343 2.0035 123.343 1.94758C123.343 1.89166 123.355 1.84272 123.38 1.79845C123.404 1.74951 123.439 1.7099 123.483 1.67728C123.569 1.60271 123.688 1.56543 123.837 1.56543C123.991 1.56543 124.119 1.61203 124.219 1.70524C124.305 1.61203 124.407 1.56543 124.526 1.56543C124.643 1.56543 124.743 1.61669 124.824 1.71456C124.929 1.61669 125.022 1.56543 125.104 1.56543C125.183 1.56543 125.246 1.57475 125.29 1.59339C125.332 1.60737 125.374 1.63067 125.411 1.66796C125.498 1.73786 125.588 1.87068 125.682 2.06875L127.21 5.24712L128.477 2.134L128.589 1.87301C128.649 1.73087 128.71 1.64466 128.766 1.61203C128.826 1.58174 128.898 1.56543 128.98 1.56543C129.059 1.56543 129.141 1.59805 129.222 1.65864C129.32 1.59805 129.45 1.56543 129.613 1.56543C129.781 1.56543 129.923 1.61203 130.042 1.70524C130.147 1.61203 130.259 1.56543 130.377 1.56543C130.494 1.56543 130.585 1.57475 130.648 1.59339C130.715 1.61203 130.771 1.64 130.815 1.67728C130.92 1.74718 130.974 1.8334 130.974 1.93826C130.974 1.99418 130.957 2.04079 130.927 2.07807C130.871 2.03613 130.797 2.01283 130.704 2.01283C130.499 2.01283 130.361 2.11069 130.294 2.30177V4.00747C130.294 4.13796 130.322 4.23582 130.377 4.29641C130.464 4.4036 130.596 4.4968 130.778 4.57603C130.585 4.67623 130.461 4.75779 130.405 4.81837C130.331 4.91158 130.294 5.0211 130.294 5.1446V7.09263C130.38 7.29769 130.545 7.40022 130.787 7.40022C130.874 7.40022 130.948 7.37925 131.011 7.33497C131.034 7.37225 131.048 7.41886 131.048 7.47478C131.048 7.52605 131.032 7.57265 131.002 7.61459C130.969 7.65887 130.929 7.69848 130.881 7.73576C130.755 7.81033 130.615 7.84761 130.461 7.84761C130.305 7.84761 130.158 7.80334 130.023 7.71712C129.898 7.80334 129.756 7.84761 129.595 7.84761C129.42 7.84761 129.269 7.80334 129.138 7.71712C129.001 7.80334 128.873 7.84761 128.756 7.84761C128.644 7.84761 128.551 7.83363 128.477 7.81033C128.402 7.79169 128.337 7.76606 128.281 7.73576C128.169 7.6612 128.113 7.57498 128.113 7.47478C128.113 7.41886 128.125 7.37225 128.151 7.33497C128.211 7.37925 128.286 7.40022 128.374 7.40022C128.617 7.40022 128.78 7.29769 128.868 7.09263V2.73052L127.312 6.58931L127.144 6.98078C127.056 7.1672 126.998 7.27439 126.967 7.29769C126.935 7.32332 126.907 7.33497 126.884 7.33497C126.814 7.33497 126.767 7.33031 126.744 7.31633L124.61 3.10335V7.00875C124.659 7.13458 124.727 7.23011 124.815 7.29769C124.908 7.36759 125.006 7.40022 125.113 7.40022C125.225 7.40022 125.318 7.37925 125.393 7.33497C125.423 7.37925 125.439 7.44449 125.439 7.53071C125.439 7.61226 125.395 7.68683 125.309 7.75441C125.227 7.81499 125.123 7.84761 124.992 7.84761C124.862 7.84761 124.743 7.81266 124.638 7.74508C124.538 7.81266 124.426 7.84761 124.303 7.84761C124.177 7.84761 124.072 7.81033 123.986 7.73576ZM125.178 2.76781C125.146 2.80509 125.132 2.86101 125.132 2.93558C125.132 3.15462 125.225 3.4389 125.411 3.79309L126.865 6.70116C126.884 6.67786 126.893 6.6266 126.893 6.55203C126.893 6.31668 126.781 5.97414 126.557 5.52675L125.178 2.76781ZM129.25 6.70116C129.385 6.65223 129.46 6.47746 129.474 6.1792C129.492 5.88094 129.502 5.46849 129.502 4.93954C129.502 4.41292 129.497 4.06106 129.492 3.8863C129.492 3.71386 129.492 3.57405 129.492 3.46686C129.478 3.15695 129.448 2.97053 129.399 2.90762C129.348 2.84004 129.299 2.79344 129.25 2.76781V6.70116ZM124.554 6.75709C124.554 6.77573 124.557 6.79204 124.564 6.80369L124.554 6.75709ZM124.107 6.75709C124.107 6.77107 124.107 6.78505 124.107 6.80369V6.75709Z" fill="black"/>
<path d="M134.398 7.71712C134.261 7.80334 134.105 7.84761 133.933 7.84761C133.765 7.84761 133.611 7.80334 133.476 7.71712C133.339 7.80334 133.211 7.84761 133.094 7.84761C132.982 7.84761 132.889 7.83363 132.815 7.81033C132.74 7.79169 132.675 7.76606 132.619 7.73576C132.5 7.6612 132.442 7.57498 132.442 7.47478C132.442 7.41886 132.456 7.37225 132.488 7.33497C132.544 7.37925 132.619 7.40022 132.712 7.40022C132.947 7.40022 133.113 7.29769 133.206 7.09263V5.1446C133.206 5.0211 133.178 4.93022 133.122 4.87429C133.048 4.77643 132.91 4.67623 132.712 4.57603C132.891 4.4968 133.01 4.42457 133.066 4.36165C133.159 4.2568 133.206 4.13796 133.206 4.00747V2.32041C133.113 2.11535 132.947 2.01283 132.712 2.01283C132.619 2.01283 132.544 2.03613 132.488 2.07807C132.456 2.04079 132.442 1.99884 132.442 1.94758C132.442 1.89166 132.456 1.84272 132.488 1.79845C132.519 1.75651 132.563 1.71922 132.619 1.6866C132.735 1.60737 132.873 1.56543 133.029 1.56543C133.19 1.56543 133.339 1.61203 133.476 1.70524C133.611 1.61203 133.765 1.56543 133.933 1.56543C134.105 1.56543 134.261 1.61203 134.398 1.70524C134.534 1.61203 134.659 1.56543 134.771 1.56543C134.888 1.56543 134.985 1.57941 135.06 1.60271C135.135 1.62135 135.2 1.64932 135.256 1.6866C135.372 1.75651 135.433 1.84039 135.433 1.93826C135.433 1.99418 135.416 2.04079 135.386 2.07807C135.33 2.03613 135.256 2.01283 135.162 2.01283C134.925 2.01283 134.762 2.11535 134.669 2.32041V4.00747C134.669 4.13796 134.697 4.23582 134.753 4.29641C134.846 4.4036 134.981 4.4968 135.162 4.57603C134.962 4.67623 134.839 4.75779 134.79 4.81837C134.708 4.91158 134.669 5.0211 134.669 5.1446V7.09263C134.762 7.29769 134.925 7.40022 135.162 7.40022C135.256 7.40022 135.33 7.37925 135.386 7.33497C135.416 7.37225 135.433 7.41886 135.433 7.47478C135.433 7.52605 135.416 7.57265 135.386 7.61459C135.353 7.65887 135.312 7.69848 135.256 7.73576C135.137 7.81033 134.997 7.84761 134.836 7.84761C134.68 7.84761 134.534 7.80334 134.398 7.71712ZM133.588 6.70116C133.718 6.65223 133.788 6.47746 133.802 6.1792C133.821 5.88094 133.83 5.46849 133.83 4.93954C133.83 4.41292 133.825 4.06106 133.821 3.8863C133.821 3.71386 133.821 3.57405 133.821 3.46686C133.814 3.15695 133.784 2.97053 133.728 2.90762C133.676 2.84004 133.63 2.79344 133.588 2.76781C133.588 3.69522 133.572 4.22184 133.541 4.35233C133.504 4.45952 133.411 4.53409 133.262 4.57603C133.423 4.63196 133.516 4.70186 133.541 4.78109C133.572 4.91158 133.588 5.38227 133.588 6.18852V6.70116Z" fill="black"/>
<path d="M137.952 7.60499C137.74 7.8217 137.537 7.93122 137.346 7.93122C137.22 7.93122 137.136 7.88461 137.094 7.79141C137.155 7.71684 137.188 7.60499 137.188 7.45586V7.39994C137.188 7.38129 137.188 7.36731 137.188 7.35333C137.05 7.23682 136.983 7.09701 136.983 6.9339C136.983 6.76612 137.06 6.59602 137.216 6.42126C137.171 6.33504 137.15 6.24183 137.15 6.14163C137.15 6.03678 137.164 5.94124 137.197 5.85269C137.227 5.75948 137.267 5.68026 137.318 5.61035C137.43 5.46821 137.537 5.39597 137.644 5.39597C137.756 5.39597 137.833 5.43792 137.877 5.51714C137.784 5.62433 137.737 5.78512 137.737 6.00182C137.737 6.21387 137.768 6.40029 137.831 6.56107C137.891 6.72418 137.98 6.85933 138.091 6.97118C138.338 7.22051 138.653 7.34401 139.032 7.34401C139.286 7.34401 139.503 7.27411 139.685 7.12963C139.876 6.97584 139.973 6.76146 139.973 6.4865C139.973 6.29543 139.927 6.1393 139.834 6.02046C139.696 5.83405 139.475 5.63598 139.172 5.42394C138.942 5.26315 138.758 5.1816 138.622 5.1816C138.478 5.1816 138.32 5.23752 138.147 5.34937C138.196 5.21888 138.222 5.09538 138.222 4.97654C138.222 4.94625 138.194 4.9113 138.138 4.87401L137.998 4.7342C137.532 4.30545 137.255 3.90932 137.169 3.54115C137.136 3.41765 137.122 3.25919 137.122 3.06579C137.122 2.87471 137.169 2.67898 137.262 2.47858C137.36 2.28052 137.49 2.11041 137.653 1.96594C137.994 1.67467 138.431 1.52786 138.967 1.52786C139.289 1.52786 139.584 1.58146 139.852 1.68632C139.964 1.73059 140.095 1.75156 140.244 1.75156C140.304 1.75156 140.36 1.74923 140.411 1.74224C140.46 1.73758 140.505 1.70962 140.542 1.65836C140.572 1.60942 140.588 1.56515 140.588 1.52786C140.588 1.48592 140.584 1.45097 140.579 1.42534C140.598 1.42068 140.621 1.41602 140.654 1.41602C140.684 1.41602 140.719 1.43 140.756 1.4533C140.798 1.47194 140.835 1.4999 140.868 1.53719C140.942 1.63039 140.98 1.73758 140.98 1.85409C140.98 1.96594 140.947 2.04983 140.887 2.10575C140.973 2.18731 141.017 2.31081 141.017 2.47858C141.017 2.64169 140.961 2.77684 140.849 2.88869C140.873 2.96326 140.887 3.0285 140.887 3.08443C140.887 3.14035 140.873 3.19628 140.849 3.2522C140.831 3.30347 140.805 3.34541 140.775 3.38269C140.693 3.46425 140.619 3.50386 140.551 3.50386C140.439 3.50386 140.346 3.48522 140.272 3.44794C140.321 3.34308 140.346 3.23123 140.346 3.11239C140.346 2.98889 140.318 2.86073 140.262 2.73024C140.206 2.59975 140.127 2.4879 140.029 2.39469C139.824 2.19663 139.554 2.09643 139.219 2.09643C139.007 2.09643 138.832 2.16168 138.697 2.29217C138.567 2.418 138.501 2.56713 138.501 2.73956C138.501 2.87005 138.532 2.97957 138.595 3.06579C138.706 3.21492 138.883 3.37104 139.126 3.53183L139.321 3.66232C139.426 3.73222 139.498 3.76484 139.536 3.76484C139.573 3.76484 139.61 3.76251 139.647 3.75552C139.685 3.74387 139.724 3.73222 139.768 3.71824C139.866 3.68795 139.959 3.64367 140.048 3.58775L140.001 3.81145C139.983 3.88601 139.973 3.93961 139.973 3.9699C139.973 4.02582 140.001 4.07709 140.057 4.11903C140.553 4.55478 140.887 4.91829 141.054 5.20956C141.203 5.45889 141.278 5.73152 141.278 6.02979C141.278 6.32339 141.227 6.57505 141.129 6.78477C141.036 6.98982 140.898 7.17624 140.719 7.34401C140.309 7.70519 139.78 7.88461 139.135 7.88461C138.681 7.88461 138.287 7.79141 137.952 7.60499ZM137.681 2.76752C137.574 2.8118 137.523 2.92365 137.523 3.10307C137.523 3.46425 137.768 3.86504 138.259 4.30545L138.501 4.51982C138.581 4.59439 138.615 4.65497 138.604 4.69692C138.597 4.7342 138.59 4.76682 138.585 4.79013C138.578 4.80877 138.569 4.83207 138.557 4.85537C138.55 4.87401 138.548 4.89032 138.548 4.90198C138.641 4.84605 138.716 4.81809 138.772 4.81809C138.888 4.81809 139 4.85071 139.107 4.9113C139.622 5.23519 139.969 5.5218 140.15 5.7688C140.286 5.95522 140.355 6.18591 140.355 6.45854C140.355 6.55874 140.348 6.64029 140.337 6.70088C140.479 6.61466 140.551 6.47252 140.551 6.27212C140.551 6.08105 140.523 5.93425 140.467 5.83405C140.416 5.72919 140.358 5.63598 140.29 5.55443C140.22 5.4752 140.132 5.38665 140.02 5.29345C139.908 5.19558 139.771 5.08839 139.61 4.97654L139.042 4.58507C138.576 4.28215 138.222 3.95825 137.98 3.61571C137.768 3.31745 137.667 3.0355 137.681 2.76752Z" fill="black"/>
<path d="M146.982 7.8472C146.807 7.8472 146.651 7.80293 146.516 7.71671C146.378 7.80293 146.25 7.8472 146.134 7.8472C146.022 7.8472 145.929 7.83322 145.854 7.80992C145.78 7.79128 145.714 7.76564 145.658 7.73535C145.54 7.66079 145.481 7.57457 145.481 7.47437C145.481 7.41845 145.495 7.37184 145.528 7.33456C145.584 7.37883 145.658 7.39981 145.752 7.39981C145.987 7.39981 146.152 7.29728 146.245 7.09222V5.14418C146.245 5.02068 146.217 4.92981 146.162 4.87388C146.087 4.77602 145.95 4.67582 145.752 4.57562C145.931 4.49639 146.05 4.42416 146.106 4.36124C146.199 4.25638 146.245 4.13754 146.245 4.00705V2.32C146.152 2.11494 145.987 2.01241 145.752 2.01241C145.658 2.01241 145.584 2.03572 145.528 2.07766C145.495 2.04038 145.481 1.99843 145.481 1.94717C145.481 1.89124 145.495 1.84231 145.528 1.79804C145.558 1.75609 145.603 1.71881 145.658 1.68619C145.775 1.60696 145.912 1.56502 146.068 1.56502C146.229 1.56502 146.378 1.61162 146.516 1.70483C146.651 1.61162 146.809 1.56502 146.991 1.56502C147.17 1.56502 147.331 1.61861 147.475 1.72347C147.759 1.61861 148.086 1.56502 148.454 1.56502C148.726 1.56502 148.961 1.59298 149.162 1.6489L149.516 1.74211C149.558 1.75609 149.6 1.76075 149.637 1.76075C149.711 1.76075 149.749 1.70949 149.749 1.6023C149.749 1.579 149.739 1.5324 149.721 1.46249C149.795 1.45084 149.888 1.44385 150 1.44385C150.117 1.44385 150.217 1.48579 150.298 1.56502C150.378 1.63958 150.42 1.7491 150.42 1.89124C150.42 2.03572 150.392 2.13824 150.336 2.19883C150.41 2.30602 150.447 2.43651 150.447 2.5903C150.447 2.74642 150.394 2.87458 150.289 2.97245C150.319 3.05401 150.336 3.13556 150.336 3.21479C150.336 3.28936 150.322 3.35926 150.298 3.41985C150.273 3.48276 150.242 3.53636 150.205 3.5783C150.131 3.65286 150.056 3.69015 149.982 3.69015C149.87 3.69015 149.767 3.66685 149.674 3.61558C149.704 3.555 149.721 3.46179 149.721 3.33596C149.721 3.04469 149.649 2.78604 149.506 2.56234C149.306 2.25941 149.006 2.10562 148.603 2.10562C148.402 2.10562 148.221 2.15688 148.053 2.25475C147.89 2.35495 147.776 2.49709 147.708 2.68351V4.23075C147.801 4.28668 147.888 4.31464 147.969 4.31464C148.055 4.31464 148.118 4.31464 148.155 4.31464C148.197 4.30998 148.242 4.30299 148.286 4.296C148.391 4.27735 148.475 4.25638 148.537 4.23075C148.649 4.17483 148.705 4.04434 148.705 3.83928C148.705 3.72277 148.677 3.63189 148.621 3.56898C148.67 3.53169 148.735 3.51305 148.817 3.51305C148.996 3.51305 149.127 3.58529 149.208 3.72743C149.232 3.77869 149.246 3.83462 149.246 3.8952C149.246 3.95812 149.229 4.03269 149.199 4.1189C149.311 4.24939 149.367 4.40319 149.367 4.57562C149.367 4.74339 149.311 4.89019 149.199 5.01369C149.229 5.1069 149.246 5.19079 149.246 5.26535C149.246 5.33526 149.229 5.40284 149.199 5.47041C149.173 5.54032 149.138 5.59158 149.096 5.62886C149.015 5.70343 148.922 5.74071 148.817 5.74071C148.742 5.74071 148.677 5.71974 148.621 5.67547C148.677 5.58226 148.705 5.47507 148.705 5.34924C148.705 5.10224 148.635 4.94845 148.5 4.89252C148.381 4.84359 148.244 4.81796 148.09 4.81796C147.934 4.81796 147.806 4.84592 147.708 4.90184V6.89648C147.862 7.17145 148.16 7.3066 148.603 7.3066C149.106 7.3066 149.446 7.1528 149.628 6.84056C149.837 6.48637 149.944 6.10888 149.944 5.70343C149.944 5.58692 149.935 5.49604 149.916 5.43313C149.977 5.36555 150.042 5.3306 150.112 5.3306C150.187 5.3306 150.242 5.34458 150.28 5.36788C150.317 5.38652 150.35 5.40983 150.382 5.43313C150.443 5.50769 150.475 5.58226 150.475 5.65683L150.457 5.85256C150.457 5.90382 150.468 5.94344 150.494 5.97373C150.55 6.02966 150.578 6.08325 150.578 6.13218C150.578 6.18345 150.562 6.2417 150.531 6.30928C150.587 6.34656 150.638 6.40016 150.69 6.46773C150.739 6.53764 150.764 6.60521 150.764 6.67279C150.764 6.82891 150.701 6.96639 150.578 7.0829C150.634 7.16446 150.662 7.27864 150.662 7.42777C150.662 7.5769 150.618 7.70506 150.531 7.80992C150.443 7.91478 150.331 7.96837 150.196 7.96837C150.121 7.96837 150.042 7.96138 149.963 7.94973C149.968 7.88681 149.972 7.82856 149.972 7.77263C149.972 7.64914 149.916 7.58622 149.805 7.58622C149.679 7.58622 149.555 7.61185 149.432 7.66079C149.138 7.78429 148.803 7.8472 148.426 7.8472C148.046 7.8472 147.727 7.79594 147.466 7.69807C147.329 7.79594 147.168 7.8472 146.982 7.8472ZM146.627 6.70075C146.758 6.65182 146.828 6.47705 146.842 6.17879C146.86 5.88052 146.87 5.46808 146.87 4.93913C146.87 4.41251 146.865 4.06065 146.86 3.88588C146.86 3.71345 146.86 3.57364 146.86 3.46645C146.853 3.15654 146.823 2.97012 146.767 2.9072C146.716 2.83963 146.669 2.79303 146.627 2.76739C146.627 3.69481 146.611 4.22143 146.581 4.35192C146.544 4.45911 146.45 4.53368 146.301 4.57562C146.462 4.63154 146.555 4.70145 146.581 4.78068C146.611 4.91117 146.627 5.38186 146.627 6.18811V6.70075ZM147.634 6.66347C147.634 6.67046 147.634 6.67745 147.634 6.68211V6.66347Z" fill="black"/>
<path d="M152.767 7.73576C152.666 7.81033 152.552 7.84761 152.422 7.84761C152.296 7.84761 152.198 7.81499 152.124 7.75441C152.049 7.68683 152.012 7.60993 152.012 7.52139C152.012 7.43517 152.024 7.37225 152.049 7.33497C152.128 7.37925 152.25 7.40022 152.413 7.40022C152.58 7.40022 152.72 7.28837 152.832 7.06467V5.1446C152.832 5.0211 152.804 4.92789 152.748 4.86497C152.666 4.76711 152.529 4.66924 152.338 4.57603C152.536 4.48282 152.66 4.40593 152.711 4.34301C152.79 4.24514 152.832 4.1333 152.832 4.00747V2.32041C152.739 2.11535 152.573 2.01283 152.338 2.01283C152.245 2.01283 152.17 2.03613 152.114 2.07807C152.082 2.04079 152.068 1.99884 152.068 1.94758C152.068 1.89166 152.08 1.84272 152.105 1.79845C152.135 1.74951 152.173 1.7099 152.217 1.67728C152.31 1.60271 152.434 1.56543 152.59 1.56543C152.75 1.56543 152.888 1.61203 153 1.70524C153.074 1.61203 153.177 1.56543 153.307 1.56543C153.437 1.56543 153.542 1.61203 153.624 1.70524C153.698 1.61203 153.775 1.56543 153.857 1.56543C153.936 1.56543 153.999 1.57475 154.043 1.59339C154.085 1.61203 154.12 1.63533 154.146 1.65864C154.188 1.69592 154.239 1.76583 154.295 1.86369L156.764 6.32833V5.10731C156.764 4.9908 156.738 4.90226 156.689 4.84633C156.615 4.76711 156.477 4.67623 156.279 4.57603C156.466 4.48981 156.582 4.41758 156.633 4.36165C156.719 4.26845 156.764 4.16359 156.764 4.04475V2.37633C156.708 2.26449 156.633 2.17827 156.54 2.11535C156.452 2.04778 156.349 2.01283 156.233 2.01283C156.121 2.01283 156.028 2.03613 155.953 2.07807C155.92 2.03613 155.907 1.97321 155.907 1.89166C155.907 1.80544 155.946 1.73087 156.028 1.66796C156.114 1.60038 156.223 1.56543 156.354 1.56543C156.489 1.56543 156.608 1.60271 156.708 1.67728C156.801 1.60271 156.906 1.56543 157.025 1.56543C157.148 1.56543 157.258 1.60271 157.351 1.67728C157.455 1.60271 157.57 1.56543 157.695 1.56543C157.826 1.56543 157.928 1.60038 158.003 1.66796C158.077 1.73786 158.115 1.81476 158.115 1.90098C158.115 1.98253 158.101 2.04079 158.077 2.07807C157.996 2.03613 157.868 2.01283 157.695 2.01283C157.528 2.01283 157.393 2.12934 157.295 2.35769V4.04475C157.295 4.16359 157.318 4.24747 157.369 4.29641C157.449 4.38496 157.586 4.47816 157.779 4.57603C157.567 4.69487 157.439 4.77643 157.397 4.81837C157.327 4.89294 157.295 4.9908 157.295 5.10731L157.369 7.13924C157.462 7.314 157.612 7.40022 157.817 7.40022C157.91 7.40022 157.984 7.37925 158.04 7.33497C158.07 7.37225 158.087 7.41886 158.087 7.47478C158.087 7.52605 158.07 7.57498 158.04 7.62391C158.015 7.66819 157.984 7.70547 157.947 7.73576C157.847 7.81033 157.733 7.84761 157.602 7.84761C157.472 7.84761 157.351 7.81965 157.239 7.76373C157.034 7.88023 156.82 7.87091 156.596 7.73576C156.514 7.81033 156.433 7.84761 156.354 7.84761C156.279 7.84761 156.223 7.83829 156.186 7.81965C156.149 7.80567 156.114 7.7847 156.084 7.75441C156.032 7.70547 155.953 7.57731 155.841 7.37225L153.391 3.14064V7.06467C153.496 7.28837 153.633 7.40022 153.801 7.40022C153.969 7.40022 154.092 7.37925 154.174 7.33497C154.204 7.37925 154.22 7.44449 154.22 7.53071C154.22 7.61226 154.176 7.68683 154.09 7.75441C154.008 7.81499 153.903 7.84761 153.773 7.84761C153.642 7.84761 153.521 7.81266 153.41 7.74508C153.316 7.81266 153.207 7.84761 153.083 7.84761C152.958 7.84761 152.853 7.81033 152.767 7.73576ZM155.888 6.70116C155.907 6.68252 155.916 6.6499 155.916 6.59863C155.916 6.54271 155.907 6.48445 155.888 6.42154C155.874 6.35396 155.855 6.28173 155.832 6.20716C155.776 6.05803 155.704 5.89725 155.618 5.72248L153.922 2.76781C153.903 2.80043 153.894 2.85169 153.894 2.92626C153.894 3.09403 154.006 3.38298 154.229 3.79309L155.888 6.70116Z" fill="black"/>
<path d="M163.395 7.1762C163.172 6.94785 162.99 6.67055 162.855 6.34666C162.717 6.02509 162.634 5.71984 162.603 5.43323C162.571 5.14195 162.522 4.94389 162.454 4.8367C162.391 4.72485 162.301 4.63863 162.184 4.57572C162.412 4.47086 162.547 4.24716 162.585 3.90462C162.627 3.56442 162.72 3.24751 162.864 2.95391C163.013 2.65564 163.202 2.40165 163.433 2.18961C163.91 1.7492 164.485 1.52783 165.156 1.52783C165.846 1.52783 166.416 1.73289 166.871 2.143C167.336 2.57176 167.611 3.16828 167.7 3.93258C167.73 4.25648 167.863 4.47086 168.1 4.57572C167.87 4.69456 167.732 4.93923 167.691 5.31206C167.646 5.68022 167.562 6.02509 167.439 6.34666C167.313 6.67055 167.145 6.94785 166.936 7.1762C166.5 7.64923 165.906 7.88458 165.156 7.88458C164.441 7.88458 163.854 7.64923 163.395 7.1762ZM164.7 4.57572C164.406 4.72019 164.262 4.94855 164.262 5.26545V6.45851C164.262 6.89425 164.441 7.17154 164.802 7.28805C164.907 7.32534 165.021 7.34398 165.147 7.34398C165.27 7.34398 165.385 7.32534 165.492 7.28805C165.596 7.25077 165.69 7.19485 165.771 7.12028C165.925 6.97115 166.004 6.75211 166.004 6.45851V5.26545C166.004 4.94855 165.86 4.72019 165.576 4.57572C165.86 4.44523 166.004 4.23085 166.004 3.93258V2.98187C166.004 2.6836 165.92 2.45525 165.753 2.29213C165.585 2.13834 165.382 2.05911 165.147 2.05911C164.737 2.05911 164.462 2.23155 164.327 2.57176C164.283 2.6906 164.262 2.82808 164.262 2.98187V3.93258C164.262 4.23784 164.406 4.45222 164.7 4.57572ZM166.377 2.76749C166.451 2.99119 166.489 3.378 166.489 3.92326C166.489 4.23551 166.472 4.40561 166.442 4.43591C166.416 4.46154 166.391 4.48251 166.367 4.50115C166.316 4.53377 166.265 4.55707 166.209 4.57572C166.37 4.65028 166.454 4.72252 166.461 4.79009C166.491 5.05107 166.507 5.27943 166.507 5.47051C166.507 5.65692 166.503 5.81072 166.498 5.92722C166.491 6.03907 166.482 6.14626 166.47 6.24413C166.451 6.45618 166.426 6.60764 166.395 6.70085C166.6 6.64026 166.715 6.33268 166.74 5.77809C166.752 5.47517 166.759 5.13263 166.759 4.75281C166.759 4.36833 166.752 4.08172 166.74 3.8953C166.733 3.70423 166.724 3.54577 166.712 3.41994C166.68 3.14032 166.612 2.94459 166.507 2.83274C166.482 2.80244 166.437 2.78147 166.377 2.76749ZM163.498 6.70085C163.535 6.6892 163.554 6.66123 163.554 6.61696C163.554 6.56104 163.526 6.47249 163.47 6.34666C163.325 6.02509 163.256 5.43323 163.256 4.57572C163.256 3.95589 163.33 3.42693 163.479 2.99119C163.498 2.92361 163.507 2.87468 163.507 2.84206C163.507 2.80477 163.491 2.78147 163.461 2.76749C163.335 2.92361 163.246 3.07974 163.19 3.23353C163.09 3.52014 163.013 3.90229 162.957 4.37998C162.95 4.44989 162.874 4.51513 162.724 4.57572C162.874 4.64562 162.95 4.7132 162.957 4.78077C163.051 5.60799 163.172 6.16024 163.321 6.43987C163.37 6.54006 163.428 6.62628 163.498 6.70085Z" fill="black"/>
<path d="M171.355 7.71681C171.218 7.80302 171.062 7.8473 170.889 7.8473C170.721 7.8473 170.568 7.80302 170.433 7.71681C170.295 7.80302 170.167 7.8473 170.051 7.8473C169.939 7.8473 169.846 7.83332 169.771 7.81001C169.697 7.79137 169.631 7.76574 169.575 7.73545C169.457 7.66088 169.398 7.57467 169.398 7.47447C169.398 7.41854 169.412 7.37194 169.445 7.33466C169.501 7.37893 169.575 7.3999 169.669 7.3999C169.904 7.3999 170.069 7.29737 170.162 7.09232V5.14428C170.162 5.02078 170.134 4.9299 170.079 4.87398C170.004 4.77611 169.867 4.67591 169.669 4.57572C169.848 4.49649 169.967 4.42425 170.023 4.36134C170.116 4.25648 170.162 4.13764 170.162 4.00715V2.3201C170.069 2.11504 169.904 2.01251 169.669 2.01251C169.575 2.01251 169.501 2.03581 169.445 2.07776C169.412 2.04047 169.398 1.99853 169.398 1.94727C169.398 1.89134 169.412 1.84241 169.445 1.79813C169.475 1.75619 169.52 1.71891 169.575 1.68628C169.692 1.60706 169.829 1.56512 169.985 1.56512C170.146 1.56512 170.295 1.61172 170.433 1.70493C170.568 1.61172 170.721 1.56512 170.889 1.56512C171.062 1.56512 171.218 1.61172 171.355 1.70493C171.658 1.58842 171.993 1.52783 172.361 1.52783C172.727 1.52783 173.032 1.56278 173.274 1.63036C173.521 1.70027 173.736 1.79347 173.917 1.90998C174.276 2.15931 174.5 2.50418 174.588 2.94459C174.625 3.14498 174.751 3.29411 174.97 3.39198C174.758 3.51082 174.621 3.69724 174.56 3.95123C174.43 4.48018 174.104 4.80873 173.582 4.93923C173.847 5.01379 174.069 5.16292 174.243 5.38662C174.416 5.61731 174.504 5.88994 174.504 6.20685V6.60764C174.504 6.98746 174.628 7.23213 174.877 7.34398C174.951 7.38126 175.031 7.3999 175.119 7.3999C175.205 7.3999 175.28 7.37893 175.343 7.33466C175.366 7.37194 175.38 7.41854 175.38 7.47447C175.38 7.52573 175.366 7.57234 175.343 7.61428C175.317 7.65855 175.282 7.69817 175.24 7.73545C175.14 7.81001 175.026 7.8473 174.896 7.8473C174.77 7.8473 174.646 7.81001 174.523 7.73545C174.299 7.85895 174.09 7.8706 173.899 7.77273C173.824 7.82167 173.743 7.8473 173.656 7.8473C173.575 7.8473 173.498 7.82866 173.423 7.79137C173.349 7.75409 173.279 7.69351 173.218 7.60496C173.093 7.41854 173.032 7.13659 173.032 6.75677V6.45851C173.032 5.84334 172.857 5.44721 172.51 5.26545C172.392 5.20487 172.254 5.17224 172.1 5.17224H171.625V7.12028C171.7 7.30669 171.84 7.3999 172.045 7.3999C172.131 7.3999 172.205 7.37893 172.268 7.33466C172.291 7.37194 172.305 7.43252 172.305 7.51175C172.305 7.58632 172.261 7.66088 172.175 7.73545C172.093 7.81001 171.97 7.8473 171.802 7.8473C171.635 7.8473 171.485 7.80302 171.355 7.71681ZM172.399 2.05911C171.881 2.05911 171.625 2.25951 171.625 2.65564V4.28677C171.625 4.43124 171.681 4.52445 171.793 4.5664C171.898 4.61766 172.049 4.64096 172.249 4.64096C172.454 4.64096 172.597 4.62931 172.678 4.60368C172.757 4.58038 172.829 4.53843 172.892 4.48251C173.009 4.37066 173.069 4.18191 173.069 3.91394V2.74885C173.069 2.4133 172.932 2.19893 172.659 2.10572C172.571 2.07543 172.485 2.05911 172.399 2.05911ZM173.34 2.3201C173.419 2.50651 173.461 2.80477 173.461 3.21489C173.461 3.9186 173.426 4.34037 173.358 4.48251C173.507 4.45222 173.612 4.25648 173.675 3.8953L173.712 3.72753C173.736 3.55509 173.819 3.44325 173.964 3.39198C173.857 3.36169 173.791 3.32208 173.768 3.27081C173.736 3.21489 173.705 3.12168 173.675 2.99119C173.649 2.85604 173.624 2.74652 173.6 2.66496C173.575 2.57875 173.547 2.5135 173.517 2.46923C173.465 2.38301 173.407 2.33408 173.34 2.3201ZM170.544 6.70085C170.675 6.65191 170.745 6.47715 170.759 6.17888C170.777 5.88062 170.787 5.46818 170.787 4.93923C170.787 4.4126 170.782 4.06075 170.777 3.88598C170.777 3.71355 170.777 3.57374 170.777 3.46655C170.77 3.15663 170.74 2.97022 170.684 2.9073C170.633 2.83973 170.586 2.79312 170.544 2.76749C170.544 3.69491 170.528 4.22153 170.498 4.35202C170.461 4.45921 170.367 4.53377 170.218 4.57572C170.379 4.63164 170.472 4.70155 170.498 4.78077C170.528 4.91126 170.544 5.38196 170.544 6.18821V6.70085ZM173.302 5.61032C173.407 5.72916 173.461 5.87596 173.461 6.04839V6.57968C173.461 7.02241 173.547 7.25776 173.722 7.28805C173.771 7.29504 173.817 7.29271 173.861 7.27873C173.768 7.1296 173.722 6.97581 173.722 6.8127V6.25345C173.722 6.04373 173.689 5.8946 173.628 5.80605C173.528 5.65226 173.419 5.58702 173.302 5.61032Z" fill="black"/>
<path d="M177.913 7.8473C177.738 7.8473 177.582 7.80302 177.447 7.71681C177.31 7.80302 177.182 7.8473 177.065 7.8473C176.953 7.8473 176.86 7.83332 176.786 7.81002C176.711 7.79137 176.646 7.76574 176.59 7.73545C176.471 7.66088 176.413 7.57467 176.413 7.47447C176.413 7.41854 176.427 7.37194 176.46 7.33466C176.516 7.37893 176.59 7.3999 176.683 7.3999C176.919 7.3999 177.084 7.29737 177.177 7.09232V5.14428C177.177 5.02078 177.149 4.9299 177.093 4.87398C177.019 4.77611 176.881 4.67591 176.683 4.57572C176.863 4.49649 176.981 4.42425 177.037 4.36134C177.131 4.25648 177.177 4.13764 177.177 4.00715V2.3201C177.084 2.11504 176.919 2.01251 176.683 2.01251C176.59 2.01251 176.516 2.03581 176.46 2.07776C176.427 2.04047 176.413 1.99853 176.413 1.94727C176.413 1.89134 176.427 1.84241 176.46 1.79813C176.49 1.75619 176.534 1.71891 176.59 1.68628C176.707 1.60706 176.844 1.56512 177 1.56512C177.161 1.56512 177.31 1.61172 177.447 1.70493C177.582 1.61172 177.729 1.56512 177.885 1.56512C178.039 1.56512 178.186 1.60007 178.323 1.66764C178.633 1.57444 178.922 1.52783 179.19 1.52783C179.462 1.52783 179.702 1.54414 179.907 1.57444C180.117 1.60706 180.317 1.65832 180.503 1.73289C180.694 1.80279 180.871 1.89833 181.034 2.02183C181.202 2.14766 181.351 2.29912 181.482 2.47855C181.761 2.86536 181.938 3.378 182.013 4.01647C182.031 4.17259 182.064 4.28211 182.115 4.3427C182.201 4.44989 182.315 4.52678 182.46 4.57572C182.304 4.63863 182.204 4.70155 182.162 4.76213C182.08 4.86233 182.031 4.99049 182.013 5.14428C181.924 6.02742 181.631 6.70784 181.128 7.18553C180.636 7.65156 180.003 7.88458 179.227 7.88458C178.915 7.88458 178.635 7.83332 178.388 7.73545C178.27 7.81002 178.111 7.8473 177.913 7.8473ZM178.64 7.13892C178.77 7.28339 178.94 7.3533 179.152 7.3533C179.362 7.3533 179.546 7.31369 179.702 7.23213C179.856 7.14591 179.986 7.01542 180.093 6.84066C180.31 6.48181 180.419 5.91557 180.419 5.14428C180.419 4.97651 180.394 4.86233 180.345 4.79941C180.27 4.7132 180.149 4.63863 179.982 4.57572C180.149 4.51979 180.254 4.46387 180.298 4.40794C180.378 4.31474 180.419 4.19357 180.419 4.04443C180.419 3.8953 180.405 3.75083 180.382 3.60636C180.364 3.45723 180.329 3.31275 180.28 3.16828C180.235 3.02614 180.18 2.88866 180.112 2.75817C180.042 2.62302 179.958 2.50418 179.86 2.40398C179.641 2.18728 179.388 2.07776 179.096 2.07776C179.003 2.07776 178.912 2.08242 178.826 2.08708C178.745 2.08708 178.682 2.11271 178.64 2.16164V7.13892ZM180.624 2.76749C180.829 3.32674 180.932 3.80676 180.932 4.20289C180.932 4.33338 180.918 4.4126 180.895 4.43591C180.869 4.46154 180.843 4.48251 180.82 4.50115C180.769 4.53377 180.718 4.55707 180.662 4.57572C180.822 4.65028 180.906 4.72252 180.913 4.79009C180.918 4.81573 180.923 4.84369 180.923 4.87398V4.97651C180.923 5.33769 180.885 5.68489 180.811 6.02043C180.736 6.35598 180.68 6.58434 180.643 6.70085C180.76 6.67055 180.848 6.59366 180.904 6.46783C180.96 6.34433 181.006 6.21151 181.044 6.06704C181.081 5.92489 181.111 5.77343 181.137 5.61032C181.193 5.28875 181.221 4.94622 181.221 4.58504C181.221 3.94657 181.123 3.42926 180.932 3.03779C180.85 2.884 180.748 2.79312 180.624 2.76749ZM177.559 6.70085C177.69 6.65191 177.759 6.47715 177.773 6.17888C177.792 5.88062 177.801 5.46818 177.801 4.93923C177.801 4.4126 177.797 4.06075 177.792 3.88598C177.792 3.71355 177.792 3.57374 177.792 3.46655C177.785 3.15663 177.755 2.97022 177.699 2.9073C177.648 2.83973 177.601 2.79312 177.559 2.76749C177.559 3.69491 177.543 4.22153 177.513 4.35202C177.475 4.45921 177.382 4.53377 177.233 4.57572C177.394 4.63164 177.487 4.70155 177.513 4.78077C177.543 4.91126 177.559 5.38196 177.559 6.18821V6.70085Z" fill="black"/>
<path d="M185.532 7.71681C185.395 7.80302 185.239 7.8473 185.066 7.8473C184.898 7.8473 184.745 7.80302 184.61 7.71681C184.472 7.80302 184.344 7.8473 184.228 7.8473C184.116 7.8473 184.023 7.83332 183.948 7.81001C183.874 7.79137 183.808 7.76574 183.752 7.73545C183.634 7.66088 183.575 7.57467 183.575 7.47447C183.575 7.41854 183.589 7.37194 183.622 7.33466C183.678 7.37893 183.752 7.3999 183.846 7.3999C184.081 7.3999 184.246 7.29737 184.339 7.09232V5.14428C184.339 5.02078 184.311 4.9299 184.256 4.87398C184.181 4.77611 184.044 4.67591 183.846 4.57572C184.025 4.49649 184.144 4.42425 184.2 4.36134C184.293 4.25648 184.339 4.13764 184.339 4.00715V2.3201C184.246 2.11504 184.081 2.01251 183.846 2.01251C183.752 2.01251 183.678 2.03581 183.622 2.07776C183.589 2.04047 183.575 1.99853 183.575 1.94727C183.575 1.89134 183.589 1.84241 183.622 1.79813C183.652 1.75619 183.697 1.71891 183.752 1.68628C183.869 1.60706 184.006 1.56512 184.162 1.56512C184.323 1.56512 184.472 1.61172 184.61 1.70493C184.745 1.61172 184.898 1.56512 185.066 1.56512C185.239 1.56512 185.395 1.61172 185.532 1.70493C185.835 1.58842 186.17 1.52783 186.538 1.52783C186.904 1.52783 187.209 1.56278 187.451 1.63036C187.698 1.70027 187.913 1.79347 188.094 1.90998C188.453 2.15931 188.677 2.50418 188.765 2.94459C188.802 3.14498 188.928 3.29411 189.147 3.39198C188.935 3.51082 188.798 3.69724 188.737 3.95123C188.607 4.48018 188.281 4.80873 187.759 4.93923C188.024 5.01379 188.246 5.16292 188.42 5.38662C188.593 5.61731 188.681 5.88994 188.681 6.20685V6.60764C188.681 6.98746 188.805 7.23213 189.054 7.34398C189.128 7.38126 189.208 7.3999 189.296 7.3999C189.382 7.3999 189.457 7.37893 189.52 7.33466C189.543 7.37194 189.557 7.41854 189.557 7.47447C189.557 7.52573 189.543 7.57234 189.52 7.61428C189.494 7.65855 189.459 7.69817 189.417 7.73545C189.317 7.81001 189.203 7.8473 189.073 7.8473C188.947 7.8473 188.823 7.81001 188.7 7.73545C188.476 7.85895 188.267 7.8706 188.076 7.77273C188.001 7.82167 187.92 7.8473 187.833 7.8473C187.752 7.8473 187.675 7.82866 187.6 7.79137C187.526 7.75409 187.456 7.69351 187.395 7.60496C187.27 7.41854 187.209 7.13659 187.209 6.75677V6.45851C187.209 5.84334 187.034 5.44721 186.687 5.26545C186.569 5.20487 186.431 5.17224 186.277 5.17224H185.802V7.12028C185.877 7.30669 186.017 7.3999 186.222 7.3999C186.308 7.3999 186.382 7.37893 186.445 7.33466C186.468 7.37194 186.482 7.43252 186.482 7.51175C186.482 7.58632 186.438 7.66088 186.352 7.73545C186.27 7.81001 186.147 7.8473 185.979 7.8473C185.812 7.8473 185.662 7.80302 185.532 7.71681ZM186.576 2.05911C186.058 2.05911 185.802 2.25951 185.802 2.65564V4.28677C185.802 4.43124 185.858 4.52445 185.97 4.5664C186.075 4.61766 186.226 4.64096 186.426 4.64096C186.631 4.64096 186.774 4.62931 186.855 4.60368C186.934 4.58038 187.006 4.53843 187.069 4.48251C187.186 4.37066 187.246 4.18191 187.246 3.91394V2.74885C187.246 2.4133 187.109 2.19893 186.836 2.10572C186.748 2.07543 186.662 2.05911 186.576 2.05911ZM187.517 2.3201C187.596 2.50651 187.638 2.80477 187.638 3.21489C187.638 3.9186 187.603 4.34037 187.535 4.48251C187.684 4.45222 187.789 4.25648 187.852 3.8953L187.889 3.72753C187.913 3.55509 187.996 3.44325 188.141 3.39198C188.034 3.36169 187.968 3.32208 187.945 3.27081C187.913 3.21489 187.882 3.12168 187.852 2.99119C187.826 2.85604 187.801 2.74652 187.777 2.66496C187.752 2.57875 187.724 2.5135 187.694 2.46923C187.642 2.38301 187.584 2.33408 187.517 2.3201ZM184.721 6.70085C184.852 6.65191 184.922 6.47715 184.936 6.17888C184.954 5.88062 184.964 5.46818 184.964 4.93923C184.964 4.4126 184.959 4.06075 184.954 3.88598C184.954 3.71355 184.954 3.57374 184.954 3.46655C184.947 3.15663 184.917 2.97022 184.861 2.9073C184.81 2.83973 184.763 2.79312 184.721 2.76749C184.721 3.69491 184.705 4.22153 184.675 4.35202C184.638 4.45921 184.544 4.53377 184.395 4.57572C184.556 4.63164 184.649 4.70155 184.675 4.78077C184.705 4.91126 184.721 5.38196 184.721 6.18821V6.70085ZM187.479 5.61032C187.584 5.72916 187.638 5.87596 187.638 6.04839V6.57968C187.638 7.02241 187.724 7.25776 187.899 7.28805C187.948 7.29504 187.994 7.29271 188.038 7.27873C187.945 7.1296 187.899 6.97581 187.899 6.8127V6.25345C187.899 6.04373 187.866 5.8946 187.805 5.80605C187.705 5.65226 187.596 5.58702 187.479 5.61032Z" fill="black"/>
<path d="M192.09 7.8472C191.915 7.8472 191.759 7.80293 191.624 7.71671C191.487 7.80293 191.359 7.8472 191.242 7.8472C191.13 7.8472 191.037 7.83322 190.963 7.80992C190.888 7.79128 190.823 7.76564 190.767 7.73535C190.648 7.66079 190.59 7.57457 190.59 7.47437C190.59 7.41845 190.604 7.37184 190.637 7.33456C190.693 7.37883 190.767 7.39981 190.86 7.39981C191.096 7.39981 191.261 7.29728 191.354 7.09222V5.14418C191.354 5.02068 191.326 4.92981 191.27 4.87388C191.196 4.77602 191.058 4.67582 190.86 4.57562C191.04 4.49639 191.158 4.42416 191.214 4.36124C191.308 4.25638 191.354 4.13754 191.354 4.00705V2.32C191.261 2.11494 191.096 2.01241 190.86 2.01241C190.767 2.01241 190.693 2.03572 190.637 2.07766C190.604 2.04038 190.59 1.99843 190.59 1.94717C190.59 1.89124 190.604 1.84231 190.637 1.79804C190.667 1.75609 190.711 1.71881 190.767 1.68619C190.884 1.60696 191.021 1.56502 191.177 1.56502C191.338 1.56502 191.487 1.61162 191.624 1.70483C191.759 1.61162 191.918 1.56502 192.099 1.56502C192.279 1.56502 192.44 1.61861 192.584 1.72347C192.868 1.61861 193.194 1.56502 193.562 1.56502C193.835 1.56502 194.07 1.59298 194.27 1.6489L194.624 1.74211C194.666 1.75609 194.708 1.76075 194.746 1.76075C194.82 1.76075 194.857 1.70949 194.857 1.6023C194.857 1.579 194.848 1.5324 194.829 1.46249C194.904 1.45084 194.997 1.44385 195.109 1.44385C195.225 1.44385 195.326 1.48579 195.407 1.56502C195.486 1.63958 195.528 1.7491 195.528 1.89124C195.528 2.03572 195.5 2.13824 195.444 2.19883C195.519 2.30602 195.556 2.43651 195.556 2.5903C195.556 2.74642 195.503 2.87458 195.398 2.97245C195.428 3.05401 195.444 3.13556 195.444 3.21479C195.444 3.28936 195.43 3.35926 195.407 3.41985C195.381 3.48276 195.351 3.53636 195.314 3.5783C195.239 3.65286 195.165 3.69015 195.09 3.69015C194.978 3.69015 194.876 3.66685 194.783 3.61558C194.813 3.555 194.829 3.46179 194.829 3.33596C194.829 3.04469 194.757 2.78604 194.615 2.56234C194.415 2.25941 194.114 2.10562 193.711 2.10562C193.511 2.10562 193.329 2.15688 193.162 2.25475C192.999 2.35495 192.884 2.49709 192.817 2.68351V4.23075C192.91 4.28668 192.996 4.31464 193.078 4.31464C193.164 4.31464 193.227 4.31464 193.264 4.31464C193.306 4.30998 193.35 4.30299 193.395 4.296C193.499 4.27735 193.583 4.25638 193.646 4.23075C193.758 4.17483 193.814 4.04434 193.814 3.83928C193.814 3.72277 193.786 3.63189 193.73 3.56898C193.779 3.53169 193.844 3.51305 193.926 3.51305C194.105 3.51305 194.235 3.58529 194.317 3.72743C194.34 3.77869 194.354 3.83462 194.354 3.8952C194.354 3.95812 194.338 4.03269 194.308 4.1189C194.419 4.24939 194.475 4.40319 194.475 4.57562C194.475 4.74339 194.419 4.89019 194.308 5.01369C194.338 5.1069 194.354 5.19079 194.354 5.26535C194.354 5.33526 194.338 5.40284 194.308 5.47041C194.282 5.54032 194.247 5.59158 194.205 5.62886C194.124 5.70343 194.03 5.74071 193.926 5.74071C193.851 5.74071 193.786 5.71974 193.73 5.67547C193.786 5.58226 193.814 5.47507 193.814 5.34924C193.814 5.10224 193.744 4.94845 193.609 4.89252C193.49 4.84359 193.353 4.81796 193.199 4.81796C193.043 4.81796 192.915 4.84592 192.817 4.90184V6.89648C192.971 7.17145 193.269 7.3066 193.711 7.3066C194.214 7.3066 194.555 7.1528 194.736 6.84056C194.946 6.48637 195.053 6.10888 195.053 5.70343C195.053 5.58692 195.044 5.49604 195.025 5.43313C195.086 5.36555 195.151 5.3306 195.221 5.3306C195.295 5.3306 195.351 5.34458 195.388 5.36788C195.426 5.38652 195.458 5.40983 195.491 5.43313C195.551 5.50769 195.584 5.58226 195.584 5.65683L195.565 5.85256C195.565 5.90382 195.577 5.94344 195.603 5.97373C195.659 6.02966 195.687 6.08325 195.687 6.13218C195.687 6.18345 195.67 6.2417 195.64 6.30928C195.696 6.34656 195.747 6.40016 195.798 6.46773C195.847 6.53764 195.873 6.60521 195.873 6.67279C195.873 6.82891 195.81 6.96639 195.687 7.0829C195.742 7.16446 195.77 7.27864 195.77 7.42777C195.77 7.5769 195.726 7.70506 195.64 7.80992C195.551 7.91478 195.44 7.96837 195.305 7.96837C195.23 7.96837 195.151 7.96138 195.072 7.94973C195.076 7.88681 195.081 7.82856 195.081 7.77263C195.081 7.64914 195.025 7.58622 194.913 7.58622C194.787 7.58622 194.664 7.61185 194.541 7.66079C194.247 7.78429 193.912 7.8472 193.534 7.8472C193.155 7.8472 192.836 7.79594 192.575 7.69807C192.437 7.79594 192.276 7.8472 192.09 7.8472ZM191.736 6.70075C191.867 6.65182 191.936 6.47705 191.95 6.17879C191.969 5.88052 191.978 5.46808 191.978 4.93913C191.978 4.41251 191.974 4.06065 191.969 3.88588C191.969 3.71345 191.969 3.57364 191.969 3.46645C191.962 3.15654 191.932 2.97012 191.876 2.9072C191.825 2.83963 191.778 2.79303 191.736 2.76739C191.736 3.69481 191.72 4.22143 191.69 4.35192C191.652 4.45911 191.559 4.53368 191.41 4.57562C191.571 4.63154 191.664 4.70145 191.69 4.78068C191.72 4.91117 191.736 5.38186 191.736 6.18811V6.70075ZM192.742 6.66347C192.742 6.67046 192.742 6.67745 192.742 6.68211V6.66347Z" fill="black"/>
</g>
</svg>
