<svg width="307" height="123" viewBox="0 0 307 123" fill="none" xmlns="http://www.w3.org/2000/svg">
<mask id="mask0_2005_265" style="mask-type:luminance" maskUnits="userSpaceOnUse" x="53" y="0" width="225" height="51">
<path d="M277.874 0H53.0703V50.7049H277.874V0Z" fill="white"/>
</mask>
<g mask="url(#mask0_2005_265)">
<path d="M55.7991 38.5422V37.2652H58.6781C59.3908 37.2652 59.7495 36.9064 59.7495 36.184V12.4441C59.7495 11.7241 59.3908 11.3629 58.6781 11.3629H55.7991V10.0859H68.0231V11.3629H64.5106C63.7885 11.3629 63.4298 11.7241 63.4298 12.4441V36.184C63.4298 36.9064 63.7885 37.2652 64.5106 37.2652H70.1009C70.6832 37.2652 71.4146 37.1138 72.2904 36.8085C73.1709 36.4986 73.9069 35.958 74.4986 35.1867C74.9504 34.5715 75.3301 33.8445 75.6352 33.0057C75.938 32.1668 76.171 31.3512 76.334 30.5543C76.4947 29.7527 76.6066 29.0956 76.6694 28.5783C76.737 28.0563 76.7719 27.7954 76.7719 27.7954H77.7689L77.2564 38.5422H55.7991Z" fill="black"/>
<path d="M84.562 38.5422V37.2652H87.441C88.1538 37.2652 88.5125 36.9064 88.5125 36.184V12.4441C88.5125 11.7241 88.1538 11.3629 87.441 11.3629H84.562V10.0859H106.858L107.016 19.1177H106.019C106.019 19.1177 105.991 18.8335 105.936 18.2602C105.88 17.6893 105.735 16.9833 105.507 16.1444C105.283 15.3056 104.906 14.4853 104.38 13.6837C103.765 12.7517 103.031 12.1342 102.181 11.8289C101.328 11.519 100.504 11.3629 99.7023 11.3629H93.2735C92.5515 11.3629 92.1927 11.7241 92.1927 12.4441V23.3587H95.7053C96.7418 23.3587 97.4872 23.0604 97.9414 22.4639C98.3933 21.8627 98.6798 21.1357 98.7986 20.2828C98.922 19.4253 98.9849 18.6121 98.9849 17.8408H100.019V30.3492H98.9849C98.9849 29.5477 98.922 28.7228 98.7986 27.8699C98.6798 27.0194 98.3933 26.2947 97.9414 25.6982C97.4872 25.097 96.7418 24.7941 95.7053 24.7941H92.1927V36.184C92.1927 36.9064 92.5515 37.2652 93.2735 37.2652H99.6651C100.247 37.2652 100.979 37.1208 101.855 36.8272C102.735 36.5289 103.469 35.9953 104.053 35.224C104.505 34.6088 104.885 33.8818 105.19 33.0429C105.5 32.2041 105.733 31.3885 105.889 30.5916C106.05 29.79 106.164 29.1329 106.234 28.6156C106.301 28.0936 106.336 27.8326 106.336 27.8326H107.333L106.858 38.5422H84.562Z" fill="black"/>
<path d="M127.307 38.5422V37.2652H130.186C130.899 37.2652 131.258 36.9064 131.258 36.184V12.4441C131.258 11.7241 130.899 11.3629 130.186 11.3629H127.307V10.0859H139.531V11.3629H136.019C135.297 11.3629 134.938 11.7241 134.938 12.4441V36.184C134.938 36.9064 135.297 37.2652 136.019 37.2652H141.609C142.191 37.2652 142.923 37.1138 143.798 36.8085C144.679 36.4986 145.415 35.958 146.007 35.1867C146.458 34.5715 146.838 33.8445 147.143 33.0057C147.446 32.1668 147.679 31.3512 147.842 30.5543C148.003 29.7527 148.115 29.0956 148.177 28.5783C148.245 28.0563 148.28 27.7954 148.28 27.7954H149.277L148.764 38.5422H127.307Z" fill="black"/>
<path d="M156.07 38.5422V37.2652H158.949C159.662 37.2652 160.021 36.9064 160.021 36.184V12.4441C160.021 11.7241 159.662 11.3629 158.949 11.3629H156.07V10.0859H167.651V11.3629H164.782C164.06 11.3629 163.701 11.7241 163.701 12.4441V36.184C163.701 36.9064 164.06 37.2652 164.782 37.2652H167.651V38.5422H156.07Z" fill="black"/>
<path d="M173.09 11.3629V10.0859H185.873V11.3629H183.236C182.864 11.3629 182.542 11.4561 182.277 11.6425C182.009 11.8289 181.876 12.0689 181.876 12.3602C181.876 12.6585 181.927 12.9544 182.035 13.2457L188.864 32.465L194.137 16.2376C194.298 15.7856 194.419 15.3009 194.501 14.7836C194.58 14.2616 194.622 13.8282 194.622 13.4787C194.622 13.0313 194.487 12.5699 194.221 12.0899C193.953 11.6052 193.406 11.3629 192.582 11.3629H190.429V10.0859H201.209V11.3629H199.737C198.724 11.3629 197.969 11.6775 197.473 12.3043C196.982 12.9334 196.618 13.5905 196.383 14.2803L188.268 39.2599H187.271L177.963 13.1245C177.695 12.4045 177.369 11.9314 176.985 11.7077C176.598 11.4794 176.139 11.3629 175.606 11.3629H173.09Z" fill="black"/>
<path d="M214.276 22.5571H218.152C219.747 22.5571 220.989 22.2915 221.879 21.7555C222.773 21.2219 223.407 20.4949 223.779 19.5745C224.152 18.6564 224.338 17.6241 224.338 16.48C224.338 14.8279 223.896 13.5626 223.015 12.6864C222.139 11.8056 220.97 11.3629 219.512 11.3629H215.357C214.634 11.3629 214.276 11.7241 214.276 12.4441V22.5571ZM206.645 38.5422V37.2652H209.524C210.237 37.2652 210.595 36.9064 210.595 36.184V12.4441C210.595 11.7241 210.237 11.3629 209.524 11.3629H206.645V10.0859H219.745C221.266 10.0859 222.698 10.2724 224.04 10.6452C225.386 11.018 226.481 11.6658 227.32 12.5839C228.158 13.5043 228.578 14.8022 228.578 16.48C228.578 17.8664 228.217 19.0478 227.497 20.0219C226.775 20.9912 225.834 21.7555 224.674 22.3148C223.518 22.874 222.302 23.2235 221.031 23.3587V23.5171C221.906 23.6733 222.729 23.9878 223.5 24.4585C224.275 24.9246 224.944 25.6935 225.503 26.7608C226.062 27.8233 226.458 29.3286 226.695 31.272C226.882 32.6585 227.05 33.7234 227.199 34.469C227.348 35.2147 227.539 35.7343 227.776 36.0256C228.019 36.3192 228.349 36.4637 228.773 36.4637C229.281 36.4637 229.654 36.219 229.891 35.7273C230.134 35.231 230.294 34.6508 230.376 33.9843C230.455 33.3202 230.497 32.7074 230.497 32.1481H231.494C231.494 32.6025 231.466 33.2084 231.41 33.9657C231.359 34.7253 231.207 35.492 230.953 36.2679C230.697 37.0392 230.292 37.6917 229.733 38.2253C229.174 38.7519 228.375 39.0175 227.338 39.0175C226.486 39.0175 225.759 38.8707 225.158 38.5795C224.562 38.2882 224.077 37.8105 223.705 37.1441C223.276 36.2935 222.98 35.2333 222.82 33.9657C222.663 32.6981 222.57 31.4002 222.54 30.0696C222.54 29.0024 222.412 27.9958 222.158 27.0497C221.909 26.106 221.506 25.3347 220.947 24.7382C220.388 24.137 219.614 23.834 218.627 23.834H214.276V36.184C214.276 36.5336 214.346 36.7992 214.49 36.9856C214.639 37.172 214.928 37.2652 215.357 37.2652H218.906V38.5422H206.645Z" fill="black"/>
<path d="M237.246 38.5422V37.2652H240.125C240.837 37.2652 241.196 36.9064 241.196 36.184V12.4441C241.196 11.7241 240.837 11.3629 240.125 11.3629H237.246V10.0859H259.541L259.7 19.1177H258.703C258.703 19.1177 258.675 18.8335 258.619 18.2602C258.563 17.6893 258.419 16.9833 258.191 16.1444C257.967 15.3056 257.59 14.4853 257.063 13.6837C256.448 12.7517 255.714 12.1342 254.864 11.8289C254.012 11.519 253.187 11.3629 252.386 11.3629H245.957C245.235 11.3629 244.876 11.7241 244.876 12.4441V23.3587H248.389C249.425 23.3587 250.171 23.0604 250.625 22.4639C251.077 21.8627 251.363 21.1357 251.482 20.2828C251.606 19.4253 251.669 18.6121 251.669 17.8408H252.703V30.3492H251.669C251.669 29.5477 251.606 28.7228 251.482 27.8699C251.363 27.0194 251.077 26.2947 250.625 25.6982C250.171 25.097 249.425 24.7941 248.389 24.7941H244.876V36.184C244.876 36.9064 245.235 37.2652 245.957 37.2652H252.349C252.931 37.2652 253.662 37.1208 254.538 36.8272C255.419 36.5289 256.152 35.9953 256.737 35.224C257.189 34.6088 257.569 33.8818 257.874 33.0429C258.184 32.2041 258.416 31.3885 258.573 30.5916C258.733 29.79 258.847 29.1329 258.917 28.6156C258.985 28.0936 259.02 27.8326 259.02 27.8326H260.017L259.541 38.5422H237.246Z" fill="black"/>
</g>
<mask id="mask1_2005_265" style="mask-type:luminance" maskUnits="userSpaceOnUse" x="0" y="63" width="307" height="60">
<path d="M306.496 63.8281H0V122.288H306.496V63.8281Z" fill="white"/>
</mask>
<g mask="url(#mask1_2005_265)">
<path d="M3.52563 107.853V106.371H6.87048C7.70204 106.371 8.11898 105.957 8.11898 105.122V77.5796C8.11898 76.7477 7.70204 76.3306 6.87048 76.3306H3.52563V74.8486H20.4921C22.4045 74.8486 24.2097 75.2354 25.9054 76.0044C27.6058 76.7757 29.0965 77.8872 30.3776 79.3412C31.6634 80.7953 32.6696 82.5103 33.3964 84.4863C34.1231 86.4623 34.4865 88.6573 34.4865 91.0667C34.4865 93.4785 34.1231 95.7061 33.3964 97.7497C32.6696 99.7886 31.6634 101.567 30.3776 103.081C29.0965 104.591 27.6058 105.766 25.9054 106.604C24.2097 107.439 22.4045 107.853 20.4921 107.853H3.52563ZM12.3769 105.122C12.3769 105.957 12.7962 106.371 13.6347 106.371H20.3058C22.0388 106.371 23.4969 105.924 24.6848 105.029C25.8774 104.13 26.8278 102.939 27.5359 101.459C28.244 99.975 28.7588 98.3276 29.0825 96.5194C29.411 94.7111 29.5763 92.8936 29.5763 91.0667C29.5763 89.2469 29.411 87.4573 29.0825 85.698C28.7588 83.934 28.244 82.3495 27.5359 80.9444C26.8278 79.5346 25.8774 78.4138 24.6848 77.5796C23.4969 76.7477 22.0388 76.3306 20.3058 76.3306H13.6347C12.7962 76.3306 12.3769 76.7477 12.3769 77.5796V105.122Z" fill="black"/>
<path d="M38.7463 107.853V106.371H42.0912C42.9227 106.371 43.3397 105.957 43.3397 105.122V77.5796C43.3397 76.7477 42.9227 76.3306 42.0912 76.3306H38.7463V74.8486H64.6107L64.797 85.3252H63.6324C63.6324 85.3252 63.5998 84.9943 63.5392 84.3278C63.4833 83.6637 63.3203 82.8435 63.0547 81.8672C62.7938 80.8931 62.3513 79.9424 61.7317 79.015C61.0236 77.9338 60.1757 77.2161 59.1881 76.8619C58.2005 76.5077 57.2432 76.3306 56.3184 76.3306H48.8554C48.0169 76.3306 47.5976 76.7477 47.5976 77.5796V90.2372H51.6785C52.8828 90.2372 53.7469 89.89 54.2687 89.1933C54.7951 88.4989 55.1282 87.6553 55.2656 86.6673C55.4077 85.6793 55.4799 84.7356 55.4799 83.8338H56.6818V98.3462H55.4799C55.4799 97.4212 55.4077 96.4634 55.2656 95.4754C55.1282 94.4874 54.7951 93.6462 54.2687 92.9495C53.7469 92.2551 52.8828 91.9056 51.6785 91.9056H47.5976V105.122C47.5976 105.957 48.0169 106.371 48.8554 106.371H56.2719C56.9474 106.371 57.7952 106.201 58.8154 105.859C59.8333 105.519 60.6835 104.899 61.3683 104.004C61.8901 103.296 62.328 102.454 62.682 101.478C63.0408 100.504 63.311 99.5533 63.4926 98.6259C63.679 97.7008 63.8094 96.9365 63.884 96.333C63.9632 95.7318 64.0051 95.4288 64.0051 95.4288H65.1697L64.6107 107.853H38.7463Z" fill="black"/>
<path d="M71.0073 93.6672H72.1161C72.2698 95.4009 72.6797 97.0786 73.3459 98.7004C74.0098 100.322 74.8576 101.776 75.8895 103.063C76.926 104.344 78.0697 105.353 79.3182 106.092C80.5714 106.833 81.8641 107.201 83.1941 107.201C85.0436 107.201 86.4947 106.884 87.5452 106.25C88.6004 105.616 89.3528 104.815 89.8 103.845C90.2472 102.871 90.4708 101.888 90.4708 100.9C90.4708 99.2294 89.9677 97.9781 88.9614 97.1439C87.9552 96.312 86.7277 95.6013 85.2812 95.0094L78.2374 92.1852C75.7334 91.1972 73.9166 89.9086 72.7869 88.3171C71.6619 86.7209 71.1005 84.8568 71.1005 82.7247C71.1005 80.5949 71.5314 78.8892 72.3956 77.6076C73.2574 76.3213 74.3848 75.4032 75.7777 74.8486C77.1683 74.2894 78.6381 74.0098 80.1847 74.0098C81.2026 74.0098 82.1646 74.1962 83.073 74.569C83.9861 74.9372 84.7804 75.338 85.4582 75.7714C86.1407 76.2071 86.6368 76.545 86.9489 76.7873C87.2587 77.0064 87.5592 77.2021 87.8527 77.3746C88.1439 77.5423 88.4304 77.6262 88.7099 77.6262C89.0197 77.6262 89.2433 77.519 89.3807 77.3C89.5158 77.0833 89.5997 76.8223 89.6323 76.517L89.8186 74.8486H90.9367L91.3932 86.9004H90.2845C89.786 84.6447 88.9987 82.6594 87.9179 80.9444C86.8371 79.2294 85.591 77.8942 84.1817 76.9365C82.7772 75.9741 81.3214 75.4918 79.812 75.4918C78.1722 75.4918 76.77 76.0324 75.61 77.1136C74.4547 78.1948 73.877 79.7886 73.877 81.8951C73.877 83.3748 74.2706 84.4933 75.0603 85.2506C75.8476 86.0102 76.8608 86.637 78.0977 87.1334L87.0421 90.7032C89.234 91.5677 90.8155 92.8051 91.7845 94.4129C92.7582 96.0161 93.2473 97.5913 93.2473 99.1385C93.2473 100.655 92.8979 102.147 92.2038 103.612C91.5073 105.08 90.4266 106.295 88.9614 107.257C87.494 108.212 85.5723 108.692 83.1941 108.692C82.2065 108.692 81.2562 108.527 80.3431 108.198C79.43 107.874 78.6008 107.499 77.8554 107.07C77.1147 106.637 76.5324 106.264 76.1038 105.952C75.5122 105.519 75.016 105.164 74.6131 104.889C74.2147 104.61 73.9376 104.47 73.7838 104.47C73.3785 104.47 73.0944 104.673 72.9267 105.076C72.7589 105.474 72.6425 105.938 72.5819 106.465L72.3956 108.319H71.3334L71.0073 93.6672Z" fill="black"/>
<path d="M109.651 107.853V106.371H112.996C113.828 106.371 114.244 105.957 114.244 105.122V77.5796C114.244 76.7477 113.828 76.3306 112.996 76.3306H109.651V74.8486H135.515L135.702 85.3252H134.537C134.537 85.3252 134.505 84.9943 134.444 84.3278C134.388 83.6637 134.225 82.8435 133.96 81.8672C133.699 80.8931 133.256 79.9424 132.636 79.015C131.928 77.9338 131.081 77.2161 130.093 76.8619C129.105 76.5077 128.148 76.3306 127.223 76.3306H119.76C118.922 76.3306 118.502 76.7477 118.502 77.5796V90.2372H122.583C123.788 90.2372 124.652 89.89 125.173 89.1933C125.7 88.4989 126.033 87.6553 126.17 86.6673C126.312 85.6793 126.385 84.7356 126.385 83.8338H127.587V98.3462H126.385C126.385 97.4212 126.312 96.4634 126.17 95.4754C126.033 94.4874 125.7 93.6462 125.173 92.9495C124.652 92.2551 123.788 91.9056 122.583 91.9056H118.502V105.122C118.502 105.957 118.922 106.371 119.76 106.371H127.177C127.852 106.371 128.7 106.201 129.72 105.859C130.738 105.519 131.588 104.899 132.273 104.004C132.795 103.296 133.233 102.454 133.587 101.478C133.946 100.504 134.216 99.5533 134.397 98.6259C134.584 97.7008 134.714 96.9365 134.789 96.333C134.868 95.7318 134.91 95.4288 134.91 95.4288H136.075L135.515 107.853H109.651Z" fill="black"/>
<path d="M141.912 93.6672H143.021C143.175 95.4009 143.585 97.0786 144.251 98.7004C144.915 100.322 145.762 101.776 146.794 103.063C147.831 104.344 148.974 105.353 150.223 106.092C151.476 106.833 152.769 107.201 154.099 107.201C155.948 107.201 157.4 106.884 158.45 106.25C159.505 105.616 160.258 104.815 160.705 103.845C161.152 102.871 161.376 101.888 161.376 100.9C161.376 99.2294 160.872 97.9781 159.866 97.1439C158.86 96.312 157.632 95.6013 156.186 95.0094L149.142 92.1852C146.638 91.1972 144.821 89.9086 143.692 88.3171C142.567 86.7209 142.005 84.8568 142.005 82.7247C142.005 80.5949 142.436 78.8892 143.3 77.6076C144.162 76.3213 145.29 75.4032 146.682 74.8486C148.073 74.2894 149.543 74.0098 151.089 74.0098C152.107 74.0098 153.069 74.1962 153.978 74.569C154.891 74.9372 155.685 75.338 156.363 75.7714C157.045 76.2071 157.542 76.545 157.854 76.7873C158.164 77.0064 158.464 77.2021 158.757 77.3746C159.049 77.5423 159.335 77.6262 159.615 77.6262C159.924 77.6262 160.148 77.519 160.285 77.3C160.421 77.0833 160.504 76.8223 160.537 76.517L160.723 74.8486H161.841L162.298 86.9004H161.189C160.691 84.6447 159.903 82.6594 158.823 80.9444C157.742 79.2294 156.496 77.8942 155.087 76.9365C153.682 75.9741 152.226 75.4918 150.717 75.4918C149.077 75.4918 147.675 76.0324 146.515 77.1136C145.359 78.1948 144.782 79.7886 144.782 81.8951C144.782 83.3748 145.175 84.4933 145.965 85.2506C146.752 86.0102 147.766 86.637 149.002 87.1334L157.947 90.7032C160.139 91.5677 161.72 92.8051 162.689 94.4129C163.663 96.0161 164.152 97.5913 164.152 99.1385C164.152 100.655 163.803 102.147 163.109 103.612C162.412 105.08 161.331 106.295 159.866 107.257C158.399 108.212 156.477 108.692 154.099 108.692C153.111 108.692 152.161 108.527 151.248 108.198C150.335 107.874 149.506 107.499 148.76 107.07C148.019 106.637 147.437 106.264 147.009 105.952C146.417 105.519 145.921 105.164 145.518 104.889C145.12 104.61 144.842 104.47 144.689 104.47C144.283 104.47 143.999 104.673 143.831 105.076C143.664 105.474 143.547 105.938 143.487 106.465L143.3 108.319H142.238L141.912 93.6672Z" fill="black"/>
<path d="M168.507 107.853V106.371H171.851C172.683 106.371 173.1 105.957 173.1 105.122V77.5796C173.1 76.7477 172.683 76.3306 171.851 76.3306H168.507V74.8486H183.992C186.184 74.8486 188.112 75.2121 189.778 75.9392C191.448 76.6615 192.752 77.6705 193.691 78.9684C194.634 80.2686 195.107 81.7693 195.107 83.4703C195.107 85.1667 194.634 86.6813 193.691 88.0095C192.752 89.3401 191.448 90.384 189.778 91.1413C188.112 91.9009 186.184 92.2784 183.992 92.2784H177.358V105.122C177.358 105.521 177.442 105.828 177.609 106.045C177.782 106.264 178.117 106.371 178.616 106.371H182.687V107.853H168.507ZM177.358 90.7964H184.588C185.762 90.7964 186.764 90.4586 187.597 89.7805C188.436 89.0977 189.079 88.1936 189.526 87.0681C189.973 85.938 190.197 84.7379 190.197 83.4703C190.197 82.1724 189.973 80.9817 189.526 79.9005C189.079 78.8193 188.436 77.9571 187.597 77.3093C186.764 76.6569 185.762 76.3306 184.588 76.3306H178.616C177.777 76.3306 177.358 76.7477 177.358 77.5796V90.7964Z" fill="black"/>
<path d="M207.944 89.3051H212.444C214.294 89.3051 215.738 88.9975 216.777 88.3824C217.813 87.7625 218.547 86.919 218.976 85.8564C219.409 84.7892 219.628 83.5892 219.628 82.2586C219.628 80.3455 219.118 78.8799 218.1 77.8592C217.08 76.8409 215.719 76.3306 214.019 76.3306H209.202C208.364 76.3306 207.944 76.7477 207.944 77.5796V89.3051ZM199.093 107.853V106.371H202.438C203.269 106.371 203.686 105.957 203.686 105.122V77.5796C203.686 76.7477 203.269 76.3306 202.438 76.3306H199.093V74.8486H214.299C216.055 74.8486 217.713 75.0677 219.274 75.5011C220.839 75.9298 222.106 76.6802 223.075 77.7474C224.049 78.81 224.538 80.3153 224.538 82.2586C224.538 83.8688 224.121 85.2389 223.29 86.3691C222.456 87.4946 221.366 88.3824 220.019 89.0348C218.678 89.6826 217.264 90.0834 215.78 90.2372V90.4236C216.798 90.61 217.755 90.9735 218.65 91.5141C219.549 92.0547 220.322 92.9449 220.97 94.1799C221.622 95.4172 222.083 97.1625 222.358 99.4181C222.575 101.021 222.768 102.259 222.936 103.128C223.108 103.992 223.332 104.596 223.606 104.936C223.886 105.272 224.273 105.439 224.771 105.439C225.353 105.439 225.787 105.155 226.066 104.582C226.346 104.011 226.532 103.34 226.625 102.569C226.718 101.8 226.765 101.087 226.765 100.434H227.92C227.92 100.963 227.888 101.669 227.827 102.55C227.764 103.426 227.587 104.316 227.296 105.216C227.002 106.11 226.532 106.87 225.88 107.49C225.232 108.105 224.308 108.413 223.103 108.413C222.116 108.413 221.272 108.24 220.578 107.9C219.882 107.56 219.316 107.003 218.883 106.232C218.391 105.244 218.053 104.018 217.867 102.55C217.681 101.077 217.571 99.5719 217.541 98.0293C217.541 96.7943 217.394 95.6246 217.103 94.5247C216.81 93.4249 216.339 92.5301 215.687 91.8404C215.039 91.146 214.145 90.7964 213.003 90.7964H207.944V105.122C207.944 105.521 208.028 105.828 208.196 106.045C208.368 106.264 208.704 106.371 209.202 106.371H213.32V107.853H199.093Z" fill="black"/>
<path d="M231.348 107.853V106.371H234.693C235.524 106.371 235.941 105.957 235.941 105.122V77.5796C235.941 76.7477 235.524 76.3306 234.693 76.3306H231.348V74.8486H244.793V76.3306H241.457C240.618 76.3306 240.199 76.7477 240.199 77.5796V105.122C240.199 105.957 240.618 106.371 241.457 106.371H244.793V107.853H231.348Z" fill="black"/>
<path d="M249.146 87.2732L249.519 74.8486H276.119L276.492 87.2732H275.327C275.327 87.2732 275.304 86.9726 275.262 86.3691C275.218 85.7679 275.117 85.0082 274.964 84.0948C274.808 83.1814 274.565 82.247 274.237 81.2893C273.913 80.3339 273.475 79.481 272.923 78.7354C272.737 78.493 272.434 78.1808 272.02 77.794C271.603 77.4025 271.083 77.0623 270.464 76.7687C269.849 76.4774 269.136 76.3306 268.33 76.3306H266.206C265.367 76.3306 264.948 76.7477 264.948 77.5796V105.122C264.948 105.957 265.367 106.371 266.206 106.371H270.65V107.853H254.988V106.371H259.432C260.271 106.371 260.69 105.957 260.69 105.122V77.5796C260.69 76.7477 260.271 76.3306 259.432 76.3306H257.308C256.5 76.3306 255.784 76.4774 255.165 76.7687C254.55 77.0623 254.033 77.4025 253.618 77.794C253.201 78.1808 252.901 78.493 252.714 78.7354C252.16 79.481 251.72 80.3339 251.391 81.2893C251.068 82.247 250.828 83.1814 250.674 84.0948C250.518 85.0082 250.415 85.7679 250.367 86.3691C250.322 86.9726 250.301 87.2732 250.301 87.2732H249.146Z" fill="black"/>
<path d="M282.053 93.6672H283.162C283.316 95.4009 283.726 97.0786 284.392 98.7004C285.056 100.322 285.904 101.776 286.936 103.063C287.972 104.344 289.116 105.353 290.364 106.092C291.618 106.833 292.91 107.201 294.24 107.201C296.09 107.201 297.541 106.884 298.591 106.25C299.647 105.616 300.399 104.815 300.846 103.845C301.293 102.871 301.517 101.888 301.517 100.9C301.517 99.2294 301.014 97.9781 300.008 97.1439C299.001 96.312 297.774 95.6013 296.327 95.0094L289.284 92.1852C286.78 91.1972 284.963 89.9086 283.833 88.3171C282.708 86.7209 282.147 84.8568 282.147 82.7247C282.147 80.5949 282.578 78.8892 283.442 77.6076C284.304 76.3213 285.431 75.4032 286.824 74.8486C288.214 74.2894 289.684 74.0098 291.231 74.0098C292.249 74.0098 293.211 74.1962 294.119 74.569C295.032 74.9372 295.827 75.338 296.504 75.7714C297.187 76.2071 297.683 76.545 297.995 76.7873C298.305 77.0064 298.605 77.2021 298.899 77.3746C299.19 77.5423 299.476 77.6262 299.756 77.6262C300.066 77.6262 300.289 77.519 300.427 77.3C300.562 77.0833 300.646 76.8223 300.678 76.517L300.865 74.8486H301.983L302.439 86.9004H301.331C300.832 84.6447 300.045 82.6594 298.964 80.9444C297.883 79.2294 296.637 77.8942 295.228 76.9365C293.823 75.9741 292.368 75.4918 290.858 75.4918C289.218 75.4918 287.816 76.0324 286.656 77.1136C285.501 78.1948 284.923 79.7886 284.923 81.8951C284.923 83.3748 285.317 84.4933 286.106 85.2506C286.894 86.0102 287.907 86.637 289.144 87.1334L298.088 90.7032C300.28 91.5677 301.862 92.8051 302.831 94.4129C303.804 96.0161 304.293 97.5913 304.293 99.1385C304.293 100.655 303.944 102.147 303.25 103.612C302.553 105.08 301.473 106.295 300.008 107.257C298.54 108.212 296.618 108.692 294.24 108.692C293.253 108.692 292.302 108.527 291.389 108.198C290.476 107.874 289.647 107.499 288.902 107.07C288.161 106.637 287.579 106.264 287.15 105.952C286.558 105.519 286.062 105.164 285.659 104.889C285.261 104.61 284.984 104.47 284.83 104.47C284.425 104.47 284.141 104.673 283.973 105.076C283.805 105.474 283.689 105.938 283.628 106.465L283.442 108.319H282.38L282.053 93.6672Z" fill="black"/>
</g>
</svg>
